<?xml version="1.0" encoding="UTF-8" standalone="no"?>
<!-- Created with Inkscape (http://www.inkscape.org/) -->

<svg
   width="112.7125mm"
   height="79.63958mm"
   viewBox="0 0 112.7125 79.63958"
   version="1.1"
   id="svg8012"
   xmlns="http://www.w3.org/2000/svg"
   xmlns:svg="http://www.w3.org/2000/svg">
  <defs
     id="defs8009" />
  <g
     id="layer1"
     transform="translate(-52.69521,-64.687859)">
    <path
       style="fill:none;stroke:#000000;stroke-width:0.264583px;stroke-linecap:butt;stroke-linejoin:miter;stroke-opacity:1"
       d="m 81.386757,77.232369 c -0.389385,0.167314 -1.168284,0.501998 -1.813348,0.839734 -0.645065,0.337736 -1.156207,0.678498 -1.606542,1.040587 -0.450334,0.36209 -0.839776,0.745447 -1.165352,1.116669 -0.325577,0.371222 -0.587233,0.730239 -0.788054,1.095401 -0.200821,0.365161 -0.340777,0.736348 -0.468566,1.071033 -0.12779,0.334684 -0.243406,0.63285 -0.304232,1.046706 -0.06083,0.413856 -0.06691,0.943254 -0.06386,1.350969 0.003,0.407715 0.01522,0.693711 0.115679,1.092315 0.100459,0.398604 0.289095,0.909746 0.559923,1.457412 0.270828,0.547665 0.62376,1.131828 0.994991,1.633839 0.371231,0.50201 0.760673,0.921878 1.168414,1.22607 0.407742,0.304193 0.833694,0.492829 1.293099,0.584034 0.459404,0.0912 0.952292,0.08512 1.618592,-0.01227 0.666301,-0.09739 1.506033,-0.286021 1.915161,-0.369669 0.409129,-0.08365 0.393914,-0.06843 0.941711,0.582832 0.547798,0.651265 1.661359,1.935206 2.744741,3.192055 1.083383,1.256849 2.13566,2.485519 2.661904,3.109238 0.526245,0.623719 0.526245,0.629809 0.642002,0.638806 0.115756,0.009 0.346985,0.01508 0.471573,0.0029 0.124588,-0.01213 0.142844,-0.04256 0.422771,-0.459412 0.279927,-0.416852 0.821496,-1.220077 1.223167,-1.709982 0.401671,-0.489905 0.663328,-0.666372 1.147085,-1.055817 0.483757,-0.389445 1.189621,-0.991863 1.846873,-1.430015 0.657251,-0.438151 1.265756,-0.711977 1.828017,-0.950891 0.562261,-0.238914 1.092915,-0.448707 1.522105,-0.591034 0.42919,-0.142328 0.775724,-0.222773 1.344713,-0.317088 0.56899,-0.09431 1.36612,-0.203845 2.05986,-0.25257 0.69374,-0.04872 1.29616,-0.03643 1.79821,0.02446 0.50205,0.06089 0.90974,0.170421 1.24197,0.28792 0.33223,0.117498 0.5988,0.247682 0.85742,0.36938 0.25863,0.121698 0.5142,0.237316 0.64484,0.27693 0.13064,0.03961 0.13672,0.003 0.13977,-0.209908 0.003,-0.212957 0.003,-0.6024 0.003,-0.803212 0,-0.200813 0,-0.212983 -0.27672,-0.377325 -0.27672,-0.164342 -0.83046,-0.480765 -1.29876,-0.697683 -0.4683,-0.216917 -0.84001,-0.330829 -1.30816,-0.428159 -0.46815,-0.09733 -1.02881,-0.176555 -1.56432,-0.231335 -0.53551,-0.05478 -1.04665,-0.08521 -1.31084,-0.13996 -0.26419,-0.05475 -0.2837,-0.145752 -0.18029,-0.291964 0.10342,-0.146212 0.32856,-0.3531 0.66334,-0.511335 0.33477,-0.158234 0.77897,-0.267763 1.25663,-0.328593 0.47765,-0.06083 0.98894,-0.073 1.52751,0.01834 0.53857,0.09134 1.10447,0.286056 1.52131,0.426012 0.41684,0.139957 0.68458,0.225146 0.84263,0.243359 0.15805,0.01821 0.21891,-0.04266 0.2539,-0.07763 0.035,-0.03498 0.0563,-0.0563 0.0564,-0.08353 8e-5,-0.02723 -0.0182,-0.06371 -0.24022,-0.173347 -0.22204,-0.109639 -0.64799,-0.292189 -1.00398,-0.450399 -0.35598,-0.158209 -0.64198,-0.292077 -0.77892,-0.355977 -0.13694,-0.0639 -0.12473,-0.05779 -0.43205,-0.09132 -0.30732,-0.03353 -0.93408,-0.106552 -1.60038,-0.136997 -0.66629,-0.03045 -1.37225,-0.01827 -2.0599,0.02127 -0.687638,0.03955 -1.356992,0.10648 -1.695273,0.13822 -0.338281,0.03174 -0.355348,0.0232 -0.206412,-0.12901 0.148935,-0.152214 0.459271,-0.45038 0.739235,-0.666427 0.279965,-0.216047 0.529451,-0.349917 0.83984,-0.465535 0.3104,-0.115619 0.68158,-0.212978 1.03149,-0.292081 0.34991,-0.0791 0.6785,-0.139952 1.10146,-0.170359 0.42295,-0.03041 0.94018,-0.03041 1.32355,-0.02743 0.38337,0.003 0.64503,0.0092 0.81237,0.05194 0.16734,0.04273 0.24644,0.121828 0.60242,0.161248 0.35599,0.03942 0.98883,0.03942 1.32353,0.03942 0.3347,0 0.3712,0 0.38019,-0.118521 0.009,-0.118521 -0.009,-0.35584 -0.0279,-0.499826 -0.0186,-0.143987 -0.0361,-0.190639 -0.17597,-0.251618 -0.13988,-0.06098 -0.40153,-0.133997 -1.29913,-0.176636 -0.8976,-0.04264 -2.43103,-0.05481 -3.29512,-0.06697 -0.86408,-0.01216 -1.0588,-0.02433 -1.48787,0.07604 -0.429071,0.100372 -1.092339,0.313348 -1.822568,0.553714 -0.730229,0.240366 -1.527368,0.508108 -2.142002,0.757602 -0.614635,0.249494 -1.046673,0.480725 -1.35391,0.608524 -0.307237,0.127798 -0.489789,0.152138 -0.619087,0.123499 -0.129297,-0.02864 -0.21144,-0.117101 -0.248085,-0.214476 -0.03664,-0.09737 -0.03056,-0.206908 0.358932,-0.538696 0.38949,-0.331789 1.162287,-0.885526 2.04164,-1.378437 0.879352,-0.492911 1.865126,-0.924948 2.659286,-1.19573 0.794164,-0.270782 1.396574,-0.380314 2.163324,-0.486798 0.76675,-0.106485 1.69776,-0.20993 2.56733,-0.332065 0.86957,-0.122134 1.66792,-0.261241 2.06648,-0.334149 0.39856,-0.07291 0.39255,-0.07891 0.41981,-0.103402 0.0272,-0.0245 0.0881,-0.0671 0.11852,-0.246466 0.0304,-0.179364 0.0304,-0.507955 0.0335,-0.666264 0.003,-0.158309 0.009,-0.152029 0.0734,-0.224883 0.0641,-0.07285 0.19726,-0.23772 0.26729,-0.319905 0.07,-0.08218 0.0822,-0.08829 0.21919,-0.124798 0.13695,-0.03651 0.3986,-0.103443 0.67852,-0.176466 0.27992,-0.07302 0.57809,-0.152129 0.93289,-0.285484 0.35481,-0.133354 0.77089,-0.323037 1.16485,-0.592387 0.39397,-0.26935 0.77428,-0.62512 1.04239,-0.901671 0.26812,-0.276551 0.43773,-0.490136 0.56855,-0.721316 0.13081,-0.231181 0.22817,-0.486759 0.31591,-0.83976 0.0877,-0.353 0.16786,-0.815281 0.21045,-1.350754 0.0426,-0.535473 0.0488,-1.162233 1.1e-4,-1.703794 -0.0486,-0.54156 -0.15208,-1.004022 -0.26464,-1.414768 -0.11256,-0.410746 -0.23426,-0.769762 -0.51107,-1.210957 -0.27682,-0.441194 -0.70886,-0.964507 -1.26866,-1.402703 -0.5598,-0.438197 -1.24741,-0.79113 -1.95026,-1.001136 -0.70286,-0.210005 -1.42089,-0.27694 -2.10853,-0.301297 -0.68765,-0.02436 -1.34483,-0.0061 -2.02033,0.112539 -0.67551,0.11864 -1.36921,0.337703 -1.82561,0.492873 -0.4564,0.15517 -0.67546,0.246446 -1.00554,0.06861 -0.33008,-0.177836 -0.77729,-0.631169 -1.13483,-1.015802 -0.357533,-0.384633 -0.634362,-0.710675 -1.115068,-1.121462 -0.480705,-0.410786 -1.168313,-0.909758 -1.834635,-1.259716 -0.666321,-0.349957 -1.311333,-0.550763 -2.172414,-0.67251 -0.861081,-0.121748 -1.938131,-0.164343 -2.735325,-0.136984 -0.797194,0.02736 -1.31442,0.124719 -1.999017,0.276847 -0.684597,0.152127 -1.5365,0.359018 -2.437188,0.827591 -0.900688,0.468572 -1.849952,1.198776 -2.586281,1.82861 -0.736328,0.629834 -1.259641,1.159231 -1.702521,1.716906 -0.44288,0.557675 -0.810704,1.152323 -1.075411,1.757856 -0.264707,0.605534 -0.429003,1.226206 -0.517216,1.840852 -0.08821,0.614645 -0.100383,1.223148 -0.103421,1.776905 -0.003,0.553758 0.003,1.05273 0.0061,1.302088 0.003,0.249357 0.0033,0.24936 -0.386127,0.416674 z"
       id="path9776" />
    <path
       style="fill:none;stroke:#000000;stroke-width:0.264583px;stroke-linecap:butt;stroke-linejoin:miter;stroke-opacity:1"
       d="m 53.667655,112.79387 c -0.0086,-2.80533 -0.02581,-8.41625 -0.02573,-11.20447 8e-5,-2.788215 0.01729,-2.753794 0.834899,-2.736744 0.817609,0.01705 2.435449,0.01705 3.571415,0.03427 1.135965,0.01722 1.789985,0.05164 2.418226,0.15495 0.628241,0.103308 1.230628,0.275419 1.927692,0.636924 0.697065,0.3615 1.488772,0.91226 1.97063,1.3426 0.481858,0.43034 0.653968,0.74014 0.782989,1.17903 0.129021,0.43888 0.215077,1.00685 0.215567,1.52878 4.9e-4,0.52193 -0.08663,1.0098 -0.258737,1.40557 -0.172108,0.39577 -0.430276,0.70557 -0.662642,1.0154 -0.232367,0.30983 -0.438899,0.61963 -0.447357,0.8779 -0.0085,0.25828 0.180867,0.46482 0.439028,0.78324 0.25816,0.31843 0.585168,0.7487 0.791626,1.17039 0.206458,0.42169 0.292513,0.83476 0.318901,1.27367 0.02639,0.43891 -0.0093,0.93794 -0.138365,1.44562 -0.129106,0.50769 -0.352849,1.04123 -0.774483,1.53167 -0.421634,0.49045 -1.041234,0.93794 -1.643571,1.23913 -0.602338,0.3012 -1.187514,0.4561 -1.729686,0.611 -0.542172,0.1549 -1.041293,0.3098 -1.652258,0.37889 -0.610966,0.0691 -1.368243,0.0515 -2.37513,0.0601 -1.006886,0.009 -2.280503,0.043 -2.917454,0.0602 -0.636951,0.0172 -0.636951,0.0172 -0.645556,-2.78814 z"
       id="path9787" />
    <path
       style="fill:none;stroke:#000000;stroke-width:0.264583px;stroke-linecap:butt;stroke-linejoin:miter;stroke-opacity:1"
       d="m 58.74502,109.53231 c 0.0086,0.49065 0.02582,1.4717 0.04302,1.9535 0.0172,0.4818 0.03446,0.46455 0.180867,0.44736 0.146408,-0.0172 0.421785,-0.0344 0.679897,-0.0946 0.258113,-0.0603 0.499067,-0.16352 0.748577,-0.33561 0.24951,-0.1721 0.507672,-0.41305 0.679754,-0.62813 0.172083,-0.21508 0.258139,-0.40441 0.241016,-0.65388 -0.01712,-0.24947 -0.137601,-0.55927 -0.292411,-0.77447 -0.154811,-0.2152 -0.344134,-0.33568 -0.602323,-0.40461 -0.25819,-0.0689 -0.585201,-0.0861 -0.877825,-0.0776 -0.292625,0.009 -0.550787,0.043 -0.679986,0.0602 -0.129199,0.0172 -0.129191,0.0171 -0.120584,0.50779 z"
       id="path9791" />
    <path
       style="fill:none;stroke:#000000;stroke-width:0.264583px;stroke-linecap:butt;stroke-linejoin:miter;stroke-opacity:1"
       d="m 58.650362,103.30179 c 0.01722,0.4046 0.05164,1.21353 0.06884,1.66101 0.01721,0.44748 0.01721,0.53356 0.129214,0.57646 0.112009,0.0429 0.335753,0.0429 0.636885,-0.0432 0.301133,-0.0861 0.679776,-0.25819 0.963693,-0.46469 0.283916,-0.2065 0.473234,-0.44745 0.58614,-0.69555 0.112905,-0.2481 0.145262,-0.47459 0.128145,-0.66387 -0.01712,-0.18928 -0.08596,-0.32697 -0.189201,-0.49049 -0.10324,-0.16352 -0.240928,-0.35284 -0.524894,-0.45624 -0.283966,-0.10341 -0.714242,-0.12061 -1.041339,-0.0776 -0.327097,0.043 -0.550838,0.14628 -0.662772,0.19794 -0.111933,0.0517 -0.111933,0.0516 -0.09472,0.45623 z"
       id="path9795" />
    <path
       style="fill:none;stroke:#000000;stroke-width:0.264583px;stroke-linecap:butt;stroke-linejoin:miter;stroke-opacity:1"
       d="m 66.481545,99.02461 c 0.120486,5.30139 0.240965,10.6025 0.301202,13.23582 0.06024,2.63332 0.06024,2.59892 0.783259,2.55576 0.723021,-0.0432 2.168749,-0.0948 2.926083,-0.11196 0.757334,-0.0172 0.82618,3e-5 0.843538,-0.47321 0.01736,-0.47324 -0.01767,-1.47146 0.01688,-1.96213 0.03455,-0.49066 0.137817,-0.49066 0.5767,2e-5 0.438883,0.49068 1.21338,1.47171 1.609163,1.99667 0.395783,0.52495 0.412997,0.59381 1.204818,0.56782 0.791822,-0.026 2.358029,-0.14646 3.175936,-0.19971 0.817907,-0.0533 0.920513,-0.0328 0.636468,-0.49735 -0.284046,-0.4646 -0.938068,-1.41121 -1.557666,-2.22016 -0.619597,-0.80895 -1.204773,-1.48018 -1.790207,-2.15171"
       id="path9799" />
    <path
       style="fill:none;stroke:#000000;stroke-width:0.264583px;stroke-linecap:butt;stroke-linejoin:miter;stroke-opacity:1"
       d="m 75.207723,109.76447 c 0.499146,-0.44749 0.99828,-0.89497 1.385506,-1.45426 0.387225,-0.5593 0.662601,-1.23053 0.817525,-1.93615 0.154925,-0.70561 0.189346,-1.44568 0.129146,-2.15993 -0.0602,-0.71426 -0.215099,-1.4027 -0.499023,-2.05674 -0.283925,-0.65404 -0.696991,-1.27364 -1.264921,-1.79005 -0.567929,-0.516412 -1.290793,-0.929477 -2.082538,-1.187721 -0.791744,-0.258244 -1.652297,-0.361511 -2.86574,-0.361535 -1.213443,-2.5e-5 -2.779649,0.103241 -4.346133,0.206526"
       id="path9803" />
    <path
       style="fill:none;stroke:#000000;stroke-width:0.264583px;stroke-linecap:butt;stroke-linejoin:miter;stroke-opacity:1"
       d="m 71.447152,104.52377 c -0.180828,0.59395 -0.146405,1.7299 -0.146288,2.28065 1.17e-4,0.55075 -0.03429,0.51634 0.103387,0.48178 0.13768,-0.0346 0.447487,-0.069 0.782981,-0.32713 0.335494,-0.25814 0.696926,-0.74005 0.894855,-1.0842 0.197928,-0.34414 0.23235,-0.55067 0.189407,-0.79158 -0.04294,-0.24091 -0.163418,-0.51629 -0.308876,-0.7238 -0.145458,-0.20752 -0.353524,-0.37776 -0.646153,-0.42953 -0.292629,-0.0518 -0.688485,-1.3e-4 -0.869313,0.59381 z"
       id="path9807" />
    <path
       style="fill:none;stroke:#000000;stroke-width:0.264583px;stroke-linecap:butt;stroke-linejoin:miter;stroke-opacity:1"
       d="m 79.286829,98.405001 c 0.05164,5.198109 0.103271,10.395949 0.120512,12.951859 0.01724,2.55591 3.2e-5,2.46986 1.652461,2.40947 1.65243,-0.0604 4.974164,-0.0948 6.660883,-0.11203 1.686718,-0.0172 1.738353,-0.0172 1.74683,-0.59367 0.0085,-0.57645 -0.02595,-1.72959 -0.05163,-2.30631 -0.02568,-0.57672 -0.04291,-0.57672 -0.980955,-0.5509 -0.938044,0.0258 -2.79684,0.0774 -3.752095,0.069 -0.955254,-0.008 -1.00688,-0.0773 -1.032808,-0.43876 -0.02593,-0.36146 -0.02593,-1.01548 -0.02593,-1.36833 0,-0.35285 0,-0.37005 0.766049,-0.42181 0.766049,-0.0518 2.297833,-0.12061 3.089596,-0.14638 0.791763,-0.0258 0.843397,-0.009 0.860447,-0.59369 0.01705,-0.58513 -1.6e-4,-1.77269 -0.04306,-2.36662 -0.0429,-0.59393 -0.111745,-0.59393 -0.87767,-0.58543 -0.765926,0.008 -2.263285,0.0259 -3.743728,0.0431"
       id="path9811" />
    <path
       style="fill:none;stroke:#000000;stroke-width:0.264583px;stroke-linecap:butt;stroke-linejoin:miter;stroke-opacity:1"
       d="m 83.67574,104.39449 c -0.03441,-0.80864 -0.06883,-1.61755 -0.06886,-2.05652 -2.9e-5,-0.43897 0.03439,-0.5078 1.007009,-0.54227 0.972622,-0.0345 2.883049,-0.0345 3.864122,-0.0172 0.981074,0.0173 1.032697,0.0517 1.032552,-0.53343 -1.44e-4,-0.58516 -0.05178,-1.789938 -0.103286,-2.41816 -0.05151,-0.628222 -0.103142,-0.679856 -1.789897,-0.654174 -1.686755,0.02568 -5.00849,0.128949 -8.330548,0.232225"
       id="path9815" />
    <path
       style="fill:none;stroke:#000000;stroke-width:0.264583px;stroke-linecap:butt;stroke-linejoin:miter;stroke-opacity:1"
       d="m 93.382969,98.405001 c -2.891514,15.593529 -2.943148,15.490269 -2.943148,15.490269 l 4.492175,0.10326 0.464709,-2.63334 1.187588,-0.1549 1.807197,0.0516 0.464706,0.41307 0.154903,2.58171 4.595441,0.10327 -0.0516,-1.03268 -3.51113,-14.973925 z"
       id="path9819" />
    <path
       style="fill:none;stroke:#000000;stroke-width:0.264583px;stroke-linecap:butt;stroke-linejoin:miter;stroke-opacity:1"
       d="m 96.68756,104.65274 -0.516343,2.78825 h 1.445758 l -0.25817,-2.89152 z"
       id="path9821" />
    <path
       style="fill:none;stroke:#000000;stroke-width:0.264583px;stroke-linecap:butt;stroke-linejoin:miter;stroke-opacity:1"
       d="m 104.17452,101.29665 c 0.10328,2.42695 0.30982,7.28057 0.41308,9.66434 0.10326,2.38377 0.10326,2.29772 0.82629,2.22874 0.72302,-0.069 2.16874,-0.12062 2.88287,-0.12917 0.71413,-0.009 0.69692,0.0259 0.72277,-0.56785 0.0258,-0.59374 0.0947,-1.81573 0.18939,-2.46991 0.0947,-0.65418 0.21517,-0.74023 0.65413,-0.0516 0.43895,0.68864 1.19624,2.15159 1.59215,2.90027 0.39592,0.74867 0.43032,0.78307 1.2737,0.79155 0.84339,0.008 2.49565,-0.009 3.3296,-0.12051 0.83395,-0.1118 0.85246,-0.35265 0.1813,-1.60047 -0.67116,-1.24781 -2.03083,-3.51967 -2.71078,-4.68148 -0.67994,-1.16181 -0.67994,-1.21341 -0.41318,-1.69543 0.26676,-0.48202 0.8003,-1.39421 1.51083,-2.60982 0.71054,-1.2156 1.61301,-2.76022 2.03486,-3.534728 0.42184,-0.774506 0.37024,-0.791705 -0.48177,-0.774549 -0.85202,0.01716 -2.50428,0.06879 -3.3218,0.09461 -0.81753,0.02582 -0.80033,0.02582 -1.20499,0.809005 -0.40466,0.783182 -1.23079,2.349382 -1.66954,3.132452 -0.43875,0.78307 -0.52477,0.78307 -0.61021,0.73945 -0.0855,-0.0436 -0.22435,-0.16267 -0.30194,-0.99743 -0.0776,-0.83476 -0.11201,-2.40095 -0.12923,-3.166863 -0.0172,-0.765909 -0.0172,-0.731489 -0.87767,-0.679991 -0.86046,0.0515 -2.58157,0.120342 -3.39047,0.172034 -0.80891,0.05169 -0.70564,0.08612 -0.65416,0.103272 0.0515,0.01716 0.0515,0.01712 0.15477,2.444058 z"
       id="path9831" />
    <path
       style="fill:none;stroke:#000000;stroke-width:0.264583px;stroke-linecap:butt;stroke-linejoin:miter;stroke-opacity:1"
       d="m 117.90062,100.96103 c 0.043,2.55602 0.12909,7.66781 0.19801,10.21495 0.0689,2.54713 0.12057,2.52992 0.81769,2.51275 0.69712,-0.0172 2.03958,-0.0344 2.71929,-0.0516 0.67972,-0.0172 0.69697,-0.0344 0.71407,-0.98954 0.0171,-0.95509 0.0344,-2.88273 0.0673,-3.82597 0.0329,-0.94324 0.0535,-0.93293 0.79358,-0.92441 0.74008,0.009 2.18581,0.009 2.90855,0.0173 0.72275,0.009 0.72275,0.0259 0.73996,-0.5937 0.0172,-0.61965 0.0516,-1.87606 0.0346,-2.51297 -0.0171,-0.63691 -0.0859,-0.65411 -0.85184,-0.63693 -0.76594,0.0172 -2.22888,0.0688 -2.9776,0.069 -0.74873,1.6e-4 -0.78316,-0.0515 -0.80047,-0.43877 -0.0173,-0.38728 -0.0173,-1.11015 0.009,-1.48896 0.0259,-0.37881 0.0775,-0.41322 1.01562,-0.43893 0.93814,-0.0257 2.79693,-0.0431 3.73496,-0.0517 0.93803,-0.009 0.97243,-0.009 0.99811,-0.61088 0.0257,-0.60228 0.0429,-1.807058 0.0644,-2.422505 0.0215,-0.615447 0.0301,-0.624053 -1.67375,-0.589625 -1.70385,0.03443 -5.12885,0.120483 -6.84151,0.163515 -1.71266,0.04303 -1.71252,0.04295 -1.66949,2.598975 z"
       id="path9835" />
    <path
       style="fill:none;stroke:#000000;stroke-width:0.264583px;stroke-linecap:butt;stroke-linejoin:miter;stroke-opacity:1"
       d="m 129.78509,97.991926 -3.20132,15.541904 4.59544,-0.0516 0.51635,-2.73661 2.89151,-0.10327 0.72288,2.83988 4.49218,0.0516 -3.56276,-15.903344 z"
       id="path9841" />
    <path
       style="fill:none;stroke:#000000;stroke-width:0.264583px;stroke-linecap:butt;stroke-linejoin:miter;stroke-opacity:1"
       d="m 133.08968,103.46515 -0.67124,3.40786 1.54902,0.0516 z"
       id="path9843" />
    <path
       style="fill:none;stroke:#000000;stroke-width:0.264583px;stroke-linecap:butt;stroke-linejoin:miter;stroke-opacity:1"
       d="m 153.12376,98.353365 c 11.10135,-0.1549 11.20462,-0.103267 11.20462,-0.103267 l -0.0516,3.511122 -3.30458,0.10327 0.3098,11.25626 -4.38891,0.20654 -0.0516,-11.41116 c 0,0 -3.25296,0.0516 -3.51113,0.0516 -0.25817,0 -0.20653,-3.614395 -0.20653,-3.614395 z"
       id="path9845" />
    <path
       style="fill:none;stroke:#000000;stroke-width:0.264583px;stroke-linecap:butt;stroke-linejoin:miter;stroke-opacity:1"
       d="m 152.19434,100.16056 -2.42681,3.51113 -0.82615,-0.56798 -1.29085,-0.67124 -1.08432,-0.25817 -1.08432,-0.0516 -0.41307,0.25817 -0.10327,0.56798 0.1549,0.36144 2.11701,0.72288 1.70392,0.77451 1.23922,0.56798 1.03269,0.98105 0.61961,0.87778 0.1549,1.70393 v 1.8072 l -0.87778,1.18759 -1.13595,1.13595 -1.03269,0.41307 -2.68497,0.41308 -1.8072,-0.30981 -2.22027,-0.98105 -1.34249,-1.08432 -0.56798,-0.72288 2.58171,-3.04642 1.34249,0.51635 1.03268,0.77451 1.13596,0.10327 0.20653,0.10326 0.56798,-0.0516 0.46471,-0.46471 -0.0516,-0.36144 -0.82615,-0.77451 -0.77451,-0.20654 -1.60067,-0.3098 -1.13595,-0.41307 -1.34249,-0.98106 -1.03268,-1.18758 -0.51634,-1.49739 -0.0516,-1.54903 0.46471,-1.39412 1.23922,-1.135956 2.16864,-1.290858 1.49739,-0.258169 2.22027,0.103267 1.6523,0.671245 1.49739,0.929418 z"
       id="path9847" />
    <path
       style="fill:none;stroke:#000000;stroke-width:0.264583px;stroke-linecap:butt;stroke-linejoin:miter;stroke-opacity:1"
       d="m 109.55488,137.00377 c -0.53547,0.38943 -1.60646,1.16833 -2.23019,1.62472 -0.62374,0.45639 -0.8002,0.59027 -0.88846,0.68777 -0.0882,0.0975 -0.0882,0.15836 -0.0912,0.31346 -0.003,0.1551 -0.009,0.4169 -0.061,0.6846 -0.0518,0.2677 -0.14911,0.54761 -0.25864,0.79707 -0.10953,0.24946 -0.23124,0.46851 -0.30106,0.58101 -0.0698,0.11249 -0.0881,0.1186 -0.65887,0.46466 -0.57075,0.34606 -1.69919,1.03532 -2.27729,1.38827 -0.57809,0.35295 -0.60852,0.37121 -0.64634,0.36424 -0.0378,-0.007 -0.0776,-0.0354 -0.0747,-0.12364 0.003,-0.0883 0.0515,-0.2343 0.13371,-0.36217 0.0822,-0.12787 0.1978,-0.23741 0.22039,-0.33618 0.0226,-0.0988 -0.0528,-0.19301 -0.16534,-0.27524 -0.11254,-0.0822 -0.26465,-0.15523 -0.42909,-0.11881 -0.16445,0.0364 -0.34092,0.18247 -0.46255,0.26461 -0.12164,0.0821 -0.18856,0.1004 -0.23632,0.0698 -0.0478,-0.0306 -0.0801,-0.12114 -0.0741,-0.21252 0.006,-0.0914 0.0486,-0.18875 0.12467,-0.30137 0.0761,-0.11261 0.18562,-0.2404 0.23433,-0.34674 0.0487,-0.10634 0.0366,-0.19156 -0.012,-0.2434 -0.0485,-0.0519 -0.13373,-0.0701 -0.25247,-0.061 -0.11873,0.009 -0.27085,0.0456 -0.38036,0.0639 -0.10951,0.0183 -0.17642,0.0183 -0.20395,-0.0394 -0.0275,-0.0577 -0.0154,-0.17331 0.0108,-0.27138 0.0262,-0.0981 0.0712,-0.18808 0.11802,-0.25057 0.0468,-0.0625 0.10536,-0.108 0.13526,-0.14447 0.0299,-0.0365 0.037,-0.0789 0.004,-0.12458 -0.0333,-0.0456 -0.10631,-0.10037 -0.19759,-0.13697 -0.0913,-0.0366 -0.20079,-0.0549 -0.2951,-0.0792 -0.0943,-0.0243 -0.17343,-0.0548 -0.2025,-0.0807 -0.0291,-0.0259 -0.0139,-0.0411 0.32999,-0.33021 0.34385,-0.28908 1.01321,-0.84891 1.50004,-1.23533 0.48683,-0.38641 0.79108,-0.59939 1.12584,-0.74239 0.33477,-0.14301 0.69986,-0.21603 1.19584,-0.24947 0.49598,-0.0334 1.12273,-0.0273 1.44827,-0.0274 0.32553,-3e-5 0.34979,-0.006 0.86394,-0.37732 0.51415,-0.3712 1.51818,-1.10749 2.03234,-1.49084 0.51416,-0.38334 0.53847,-0.41374 0.55065,-0.46538 0.0122,-0.0516 0.0122,-0.1368 -0.53533,-0.55671 -0.54752,-0.41991 -1.64283,-1.18054 -2.18756,-1.55481 -0.54473,-0.37427 -0.53855,-0.36195 -0.55683,-0.42583 -0.0183,-0.0639 -0.0609,-0.20384 -0.0852,-0.27398 -0.0243,-0.0701 -0.0302,-0.0701 0.0488,-0.0915 0.079,-0.0213 0.24334,-0.0639 0.41681,-0.0852 0.17347,-0.0213 0.35602,-0.0213 0.48948,-0.0152 0.13346,0.006 0.21951,0.0183 0.75089,0.38804 0.53137,0.3697 1.50106,1.09091 1.98773,1.44986 0.48666,0.35896 0.48666,0.35306 0.58416,0.34986 0.0975,-0.003 0.30439,-0.003 0.41086,-0.003 0.10647,0 0.11867,0 0.58409,-0.31645 0.46541,-0.31645 1.38425,-0.9493 1.86807,-1.27181 0.48381,-0.32251 0.53252,-0.33469 0.67861,-0.34075 0.14609,-0.006 0.3895,-0.006 0.51107,-0.003 0.12157,0.003 0.12157,0.009 0.16123,0.0703 0.0397,0.0609 0.11876,0.17652 0.14314,0.22815 0.0244,0.0516 -0.006,0.0395 -0.53864,0.44408 -0.5326,0.4046 -1.56706,1.22608 -2.09349,1.63914 -0.52643,0.41306 -0.55654,0.42061 -0.19138,0.73111 0.36516,0.31049 1.1197,0.92508 1.48175,1.2202 0.36205,0.29512 0.33166,0.27082 0.44726,0.25548 0.1156,-0.0153 0.37725,-0.0214 0.5872,-0.0245 0.20994,-0.003 0.36815,-0.003 0.66026,0.0426 0.2921,0.0457 0.71806,0.13695 1.08622,0.25261 0.36817,0.11566 0.6785,0.25561 0.98039,0.40345 0.30188,0.14784 0.6048,0.30858 0.90601,0.48506 0.30121,0.17648 0.60546,0.3712 0.84581,0.55988 0.24034,0.18868 0.41681,0.37123 0.53234,0.55381 0.11553,0.18257 0.1703,0.36513 0.20681,0.49292 0.0365,0.12779 0.0548,0.20081 0.0547,0.31943 -5e-5,0.11862 -0.0183,0.28291 -0.0274,0.45636 -0.009,0.17345 -0.009,0.35599 -0.0304,0.52329 -0.0213,0.16729 -0.0639,0.31943 -0.14789,0.47304 -0.084,0.15361 -0.21418,0.3148 -0.42101,0.46385 -0.20683,0.14904 -0.49282,0.28899 -0.71795,0.38636 -0.22512,0.0974 -0.38943,0.15213 -0.59626,0.17346 -0.20684,0.0213 -0.45633,0.009 -0.70604,-0.0326 -0.24971,-0.0418 -0.51089,-0.11638 -0.74822,-0.22282 -0.23733,-0.10644 -0.45639,-0.2464 -0.63288,-0.3772 -0.17648,-0.13081 -0.31035,-0.25251 -0.51119,-0.4746 -0.20083,-0.2221 -0.46856,-0.5446 -0.65723,-0.79408 -0.18866,-0.24948 -0.2982,-0.42595 -0.41076,-0.59938 -0.11257,-0.17343 -0.22819,-0.34381 -0.35296,-0.572 -0.12478,-0.22819 -0.25865,-0.51419 -0.34043,-0.76071 -0.0818,-0.24652 -0.11306,-0.46546 -0.20423,-0.63891 -0.0912,-0.17346 -0.24329,-0.30733 -0.72401,-0.66637 -0.48073,-0.35905 -1.29003,-0.94321 -1.69485,-1.2354 -0.40481,-0.2922 -0.40468,-0.29217 -0.94015,0.0973 z"
       id="path9849" />
    <path
       style="fill:none;stroke:#000000;stroke-width:0.264583px;stroke-linecap:butt;stroke-linejoin:miter;stroke-opacity:1"
       d="m 131.13596,123.12963 c 0.32567,-0.0304 0.97678,-0.0913 1.43315,-0.15215 0.45637,-0.0609 0.71803,-0.12172 0.90368,-0.13686 0.18566,-0.0151 0.29518,0.0153 0.38034,0.0732 0.0851,0.0579 0.14599,0.1431 0.24041,0.19429 0.0944,0.0512 0.23426,0.0703 0.36505,0.0672 0.13079,-0.003 0.25857,-0.0274 0.34971,-0.0791 0.0911,-0.0517 0.14594,-0.1308 0.24038,-0.18257 0.0945,-0.0518 0.22831,-0.0761 0.3105,-0.0882 0.0822,-0.0122 0.11258,-0.0122 0.15811,-0.0365 0.0455,-0.0243 0.1064,-0.073 0.18557,-0.10956 0.0792,-0.0365 0.17656,-0.0609 0.24956,-0.0791 0.073,-0.0182 0.12171,-0.0304 0.22217,-0.0365 0.10045,-0.006 0.25258,-0.006 0.38647,0.0275 0.1339,0.0336 0.24952,0.1005 0.32246,0.1675 0.0729,0.067 0.10337,0.13393 0.18873,0.15261 0.0854,0.0187 0.23722,-0.013 0.35896,-0.0159 0.12175,-0.003 0.21913,0.0213 0.30428,0.0823 0.0851,0.061 0.15817,0.15832 0.22812,0.19466 0.0699,0.0363 0.13687,0.012 0.19834,0.056 0.0615,0.044 0.12718,0.17544 0.14838,0.28796 0.0212,0.11253 0.003,0.21598 0.0152,0.30123 0.0123,0.0852 0.0549,0.15218 0.0905,0.28357 0.0356,0.13138 0.0677,0.34931 0.0319,0.68954 -0.0358,0.34023 -0.14076,0.82802 -0.50284,1.73164 -0.36208,0.90361 -0.98275,2.23015 -1.29019,2.94524 -0.30744,0.71508 -0.30104,0.83069 -0.28325,0.9178 0.0178,0.0871 0.0493,0.15633 0.0965,0.22464 0.0472,0.0683 0.1172,0.14464 0.21152,0.18407 0.0943,0.0394 0.21604,0.0455 0.32852,0.0151 0.11247,-0.0305 0.21591,-0.0974 0.46658,-0.29061 0.25067,-0.19324 0.65599,-0.51872 0.89648,-0.67996 0.24049,-0.16124 0.31957,-0.16124 0.39564,-0.12459 0.0761,0.0367 0.14908,0.10966 0.20003,0.2072 0.051,0.0976 0.0828,0.2311 0.0766,0.33444 -0.006,0.10335 -0.0487,0.18244 -0.20692,0.36495 -0.1582,0.18252 -0.43203,0.46852 -0.73322,0.73321 -0.3012,0.26469 -0.62979,0.50808 -0.80021,0.63895 -0.17041,0.13088 -0.1826,0.14918 -0.56582,0.15525 -0.38321,0.006 -1.14993,-8e-5 -1.57143,-0.0295 -0.4215,-0.0294 -0.50948,-0.086 -0.5825,-0.13467 -0.073,-0.0487 -0.13387,-0.0913 -0.16142,-0.17644 -0.0276,-0.0852 -0.0215,-0.21296 -0.0342,-0.35583 -0.0127,-0.14286 -0.042,-0.28913 -0.0483,-0.55691 -0.006,-0.26778 0.0123,-0.6633 0.0336,-0.93411 0.0213,-0.27081 0.0456,-0.42293 0.40353,-1.29973 0.35791,-0.87681 1.05382,-2.48838 1.3491,-3.34935 0.29528,-0.86098 0.19184,-0.97659 0.14917,-1.01007 -0.0427,-0.0335 -0.0244,0.0152 -0.0745,-0.0198 -0.0501,-0.035 -0.17487,-0.15975 -0.28135,-0.22376 -0.10649,-0.064 -0.19777,-0.0701 -0.28905,-0.076 -0.0913,-0.006 -0.19471,-0.0124 -0.28294,-0.0154 -0.0882,-0.003 -0.16737,-0.003 -0.25268,0.0334 -0.0853,0.0365 -0.17658,0.10952 -0.26478,0.1734 -0.0882,0.0639 -0.17343,0.11866 -0.28728,0.18632 -0.11386,0.0677 -0.25123,0.14531 -0.43385,0.33705 -0.18262,0.19173 -0.40777,0.49598 -0.98283,1.69786 -0.57507,1.20187 -1.5,3.30121 -1.97972,4.3969 -0.47971,1.09568 -0.51825,1.19845 -0.5532,1.26377 -0.035,0.0653 -0.0624,0.0927 -0.38172,0.0839 -0.31937,-0.009 -0.94,-0.058 -1.24745,-0.0914 -0.30744,-0.0334 -0.30744,-0.0395 -0.25593,-0.24258 0.0515,-0.20313 0.15534,-0.60016 0.62391,-1.68337 0.46856,-1.0832 1.30221,-2.85395 1.7373,-3.80017 0.43509,-0.94621 0.4716,-1.06791 0.47171,-1.24996 1.2e-4,-0.18205 -0.0365,-0.42634 -0.0639,-0.61194 -0.0274,-0.18559 -0.0456,-0.31337 -0.10039,-0.52026 -0.0547,-0.20688 -0.14602,-0.49289 -0.24635,-0.63605 -0.10032,-0.14316 -0.20985,-0.14316 -0.26475,-0.14316 -0.0549,0 -0.0548,-1.8e-4 0.27083,-0.0306 z"
       id="path9853" />
    <path
       style="fill:none;stroke:#000000;stroke-width:0.264583px;stroke-linecap:butt;stroke-linejoin:miter;stroke-opacity:1"
       d="m 124.53956,124.06978 c -0.10037,0.07 -0.30118,0.20992 -0.44422,0.33774 -0.14304,0.12783 -0.22825,0.24346 -0.30432,0.36824 -0.0761,0.12478 -0.14301,0.25864 -0.23428,0.41989 -0.0913,0.16124 -0.20689,0.34987 -0.38945,0.63283 -0.18256,0.28296 -0.43204,0.66023 -0.59634,1.0041 -0.1643,0.34387 -0.24341,0.65422 -0.32556,0.96151 -0.0821,0.30729 -0.16734,0.61155 -0.21297,1.01322 -0.0456,0.40167 -0.0517,0.90065 -0.0306,1.23762 0.0211,0.33698 0.0702,0.51499 0.14332,0.66406 0.0731,0.14907 0.17046,0.27079 0.29828,0.37722 0.12782,0.10643 0.28605,0.19771 0.44742,0.22266 0.16136,0.0249 0.33748,-0.0191 0.592,-0.10692 0.25452,-0.0878 0.59735,-0.22252 0.86502,-0.42024 0.26766,-0.19772 0.46238,-0.45937 0.62363,-0.7058 0.16125,-0.24644 0.28903,-0.47766 0.47411,-0.85987 0.18508,-0.38221 0.42952,-0.91999 0.64554,-1.41896 0.21603,-0.49898 0.40466,-0.96144 0.51999,-1.41753 0.11533,-0.45609 0.15854,-0.91906 0.13801,-1.31474 -0.0205,-0.39567 -0.10716,-0.74216 -0.26526,-0.93397 -0.1581,-0.19181 -0.38933,-0.23441 -0.70884,-0.23141 -0.31951,0.003 -0.72721,0.0517 -0.93118,0.076 -0.20397,0.0243 -0.20392,0.0243 -0.3043,0.0943 z"
       id="path9857" />
    <path
       style="fill:none;stroke:#000000;stroke-width:0.264583px;stroke-linecap:butt;stroke-linejoin:miter;stroke-opacity:1"
       d="m 121.76471,124.57791 c 0.17343,-0.17039 0.52028,-0.51116 0.81241,-0.7485 0.29213,-0.23734 0.52945,-0.37121 0.80939,-0.50814 0.27994,-0.13692 0.60245,-0.27687 0.91586,-0.38945 0.31341,-0.11257 0.61766,-0.19776 0.90066,-0.24947 0.283,-0.0517 0.54465,-0.07 0.79723,-0.0456 0.25257,0.0244 0.49597,0.0913 0.7272,0.20701 0.23122,0.11568 0.45029,0.27998 0.65714,0.50518 0.20685,0.22519 0.40158,0.51119 0.52627,0.7333 0.1247,0.22211 0.17947,0.38033 0.24946,0.55985 0.07,0.17952 0.15518,0.38031 0.19466,0.73932 0.0395,0.359 0.0334,0.87623 0.003,1.30224 -0.03,0.42601 -0.0857,0.77271 -0.23174,1.25645 -0.14606,0.48374 -0.38337,1.1105 -0.52803,1.4643 -0.14466,0.3538 -0.20218,0.44327 -0.47296,0.73229 -0.27077,0.28902 -0.75758,0.7819 -1.1781,1.12442 -0.42053,0.34251 -0.78424,0.53978 -1.21017,0.71321 -0.42593,0.17343 -0.91882,0.32555 -1.23824,0.39861 -0.31942,0.0731 -0.46545,0.067 -0.69364,0.0305 -0.22818,-0.0365 -0.53851,-0.10341 -0.8519,-0.24938 -0.31339,-0.14597 -0.62982,-0.37112 -0.90064,-0.63274 -0.27083,-0.26163 -0.49598,-0.55979 -0.63594,-0.75146 -0.13997,-0.19166 -0.19475,-0.27688 -0.24585,-0.42004 -0.0511,-0.14316 -0.10115,-0.35581 -0.13161,-0.64184 -0.0305,-0.28602 -0.0426,-0.65112 -0.0578,-1.01319 -0.0152,-0.36208 -0.0335,-0.72108 0.0212,-1.05889 0.0547,-0.3378 0.18251,-0.65422 0.33464,-0.98588 0.15213,-0.33166 0.3286,-0.67851 0.5416,-0.99802 0.213,-0.31951 0.46249,-0.6116 0.58724,-0.75766 0.12475,-0.14605 0.12482,-0.14607 0.29825,-0.31645 z"
       id="path9861" />
    <path
       style="fill:none;stroke:#000000;stroke-width:0.264583px;stroke-linecap:butt;stroke-linejoin:miter;stroke-opacity:1"
       d="m 116.00207,122.90753 c -0.0761,0.0761 -0.22819,0.2282 -0.30066,0.30607 -0.0725,0.0779 -0.055,0.0866 0.0545,0.15662 0.10953,0.07 0.31644,0.20389 0.45024,0.3165 0.13381,0.11261 0.19468,0.20392 0.24027,0.29519 0.0456,0.0913 0.076,0.18256 0.079,0.30423 0.003,0.12166 -0.0213,0.27378 -0.43211,1.13175 -0.41077,0.85796 -1.20791,2.42181 -1.61253,3.20977 -0.40463,0.78797 -0.41683,0.80017 -0.42594,1.065 -0.009,0.26483 -0.0152,0.78205 -0.006,1.13805 0.009,0.356 0.0335,0.55071 0.0487,0.6541 0.0152,0.10338 0.0214,0.1157 0.11272,0.17039 0.0913,0.0547 0.26782,0.15206 0.42604,0.2403 0.15822,0.0882 0.29816,0.16734 0.53851,0.21289 0.24035,0.0456 0.58111,0.0577 0.90986,0.0219 0.32875,-0.0358 0.65695,-0.12248 0.99767,-0.27765 0.34071,-0.15517 0.69973,-0.38032 0.99177,-0.62065 0.29205,-0.24034 0.51719,-0.49591 0.65409,-0.70577 0.1369,-0.20985 0.18558,-0.37415 0.19175,-0.50492 0.006,-0.13077 -0.0303,-0.22813 -0.0911,-0.28606 -0.0607,-0.0579 -0.14594,-0.0762 -0.24035,-0.0671 -0.0944,0.009 -0.19785,0.0456 -0.28315,0.10649 -0.0853,0.0609 -0.1522,0.14607 -0.24955,0.24949 -0.0973,0.10343 -0.22514,0.22513 -0.38331,0.33769 -0.15817,0.11255 -0.3468,0.216 -0.50498,0.29206 -0.15819,0.0761 -0.28598,0.12474 -0.42588,0.14607 -0.13991,0.0213 -0.29202,0.0152 -0.39548,-0.0151 -0.10345,-0.0303 -0.15822,-0.0851 -0.21908,-0.14594 -0.0609,-0.0609 -0.12777,-0.12777 -0.15226,-0.21299 -0.0245,-0.0852 -0.006,-0.18867 0.52747,-1.29867 0.53369,-1.11001 1.59002,-3.24099 2.12553,-4.37277 0.53551,-1.13177 0.55377,-1.27173 0.54167,-1.42077 -0.0121,-0.14904 -0.0547,-0.30725 -0.082,-0.3955 -0.0273,-0.0883 -0.0395,-0.10648 -0.53844,-0.11275 -0.49897,-0.006 -1.48474,-2.1e-4 -1.97777,0.003 -0.49303,0.003 -0.49312,0.003 -0.56919,0.0792 z"
       id="path9865" />
    <path
       style="fill:none;stroke:#000000;stroke-width:0.264583px;stroke-linecap:butt;stroke-linejoin:miter;stroke-opacity:1"
       d="m 113.11161,121.53242 c -0.009,0.21615 -0.0274,0.6482 -0.0243,0.88861 0.003,0.24041 0.0274,0.28902 0.0887,0.33057 0.0613,0.0416 0.17015,0.08 0.36789,0.10427 0.19775,0.0243 0.48983,0.0365 0.64189,0.0456 0.15206,0.009 0.16438,0.0153 0.17031,0.14928 0.006,0.13394 0.006,0.3956 0.003,0.5173 -0.003,0.12169 -0.009,0.10355 -0.23416,0.0912 -0.2251,-0.0123 -0.68148,-0.0185 -0.91271,-0.0216 -0.23123,-0.003 -0.24343,-0.003 -0.32569,0.0608 -0.0823,0.0639 -0.23438,0.19167 -0.39261,0.34077 -0.15823,0.1491 -0.32252,0.31948 -0.39966,0.39214 -0.0771,0.0727 -0.0629,0.037 -0.30325,0.62726 -0.24037,0.59026 -0.73326,1.80118 -1.09533,2.71093 -0.36207,0.90974 -0.5933,1.51824 -0.71805,1.85904 -0.12475,0.34079 -0.14301,0.41379 -0.1643,0.52335 -0.0213,0.10955 -0.0456,0.25559 -0.0517,0.40471 -0.006,0.14912 0.006,0.30125 0.0475,0.41842 0.0414,0.11716 0.117,0.20534 0.19915,0.25389 0.0822,0.0486 0.17348,0.0607 0.31033,0.0302 0.13685,-0.0305 0.31938,-0.10349 0.53229,-0.26776 0.21291,-0.16427 0.45631,-0.41984 0.66017,-0.62978 0.20386,-0.20994 0.36816,-0.37424 0.48566,-0.47407 0.11751,-0.0998 0.19296,-0.13755 0.27824,-0.13746 0.0853,8e-5 0.18267,0.0366 0.2648,0.0609 0.0821,0.0243 0.14908,0.0365 0.18849,0.0974 0.0394,0.061 0.0516,0.1705 0.0485,0.26783 -0.003,0.0973 -0.0213,0.18248 -0.067,0.27063 -0.0456,0.0882 -0.11866,0.17944 -0.26166,0.35895 -0.14301,0.17952 -0.35599,0.44727 -0.5872,0.6876 -0.23121,0.24034 -0.48069,0.45332 -0.69663,0.57805 -0.21594,0.12474 -0.39848,0.16125 -0.71488,0.1704 -0.3164,0.009 -0.76669,-0.009 -1.08615,-0.0335 -0.31947,-0.0243 -0.50809,-0.0548 -0.66936,-0.1277 -0.16127,-0.0729 -0.29515,-0.18855 -0.3986,-0.29195 -0.10346,-0.10341 -0.17651,-0.19472 -0.22832,-0.31338 -0.0518,-0.11865 -0.0822,-0.26469 -0.10052,-0.52029 -0.0183,-0.2556 -0.0243,-0.6207 0.0304,-0.99499 0.0547,-0.37429 0.17036,-0.75765 0.47462,-1.55787 0.30426,-0.80023 0.79715,-2.01724 1.06144,-2.76534 0.26428,-0.74809 0.30165,-1.04084 0.32296,-1.2538 0.0213,-0.21296 0.0274,-0.35293 2e-4,-0.43212 -0.0272,-0.0792 -0.088,-0.0974 -0.16683,-0.14349 -0.0788,-0.0461 -0.189,-0.13032 -0.259,-0.18207 -0.07,-0.0517 -0.10648,-0.0761 -0.11577,-0.13385 -0.009,-0.0578 0.009,-0.14908 0.0485,-0.25562 0.0395,-0.10653 0.10041,-0.22824 0.16441,-0.2983 0.064,-0.0701 0.13094,-0.0883 0.24965,-0.0944 0.11871,-0.006 0.2891,4e-5 0.39244,-0.0122 0.10334,-0.0122 0.13983,-0.0426 0.32539,-0.3377 0.18556,-0.29509 0.52023,-0.85491 0.73357,-1.14924 0.21335,-0.29432 0.31628,-0.3265 0.61149,-0.28689 0.2952,0.0396 0.78809,0.14915 1.03439,0.20388 0.24629,0.0547 0.24639,0.0549 0.23725,0.27107 z"
       id="path9869" />
    <path
       style="fill:none;stroke:#000000;stroke-width:0.264583px;stroke-linecap:butt;stroke-linejoin:miter;stroke-opacity:1"
       d="m 103.3238,123.00199 c 0.0427,0.0427 0.12792,0.12792 0.21011,0.19177 0.0822,0.0639 0.16128,0.10644 0.24038,0.13376 0.0791,0.0273 0.15818,0.0395 0.23722,0.0272 0.079,-0.0122 0.15812,-0.0487 0.22498,-0.10346 0.0669,-0.0547 0.12162,-0.12773 0.15824,-0.16734 0.0366,-0.0396 0.0549,-0.0457 0.39548,-0.0244 0.34063,0.0213 1.00434,0.07 1.35415,0.14318 0.34981,0.0732 0.38633,0.17055 0.38634,0.1736 1e-5,0.003 -0.0365,-0.0883 -0.0487,-0.0791 -0.0122,0.009 -5e-5,0.11866 -0.48388,1.22 -0.48383,1.10135 -1.46351,3.19459 -1.97163,4.29604 -0.50811,1.10144 -0.54462,1.21097 -0.56589,1.33576 -0.0213,0.1248 -0.0273,0.26474 1.4e-4,0.3956 0.0275,0.13086 0.0883,0.25257 0.1675,0.34377 0.0792,0.0912 0.17655,0.15208 0.26478,0.18241 0.0882,0.0303 0.16731,0.0303 0.28895,-0.006 0.12164,-0.0366 0.28592,-0.10956 0.42886,-0.2069 0.14295,-0.0973 0.26465,-0.21903 0.38938,-0.34986 0.12474,-0.13082 0.25253,-0.27078 0.38336,-0.41682 0.13083,-0.14605 0.2647,-0.29817 0.36204,-0.4168 0.0974,-0.11864 0.15822,-0.20385 0.2101,-0.24341 0.0519,-0.0395 0.0945,-0.0334 0.15228,0.0184 0.0577,0.0519 0.13078,0.14922 0.18853,0.26181 0.0578,0.11259 0.10035,0.24039 0.10028,0.38635 -8e-5,0.14597 -0.0427,0.31027 -0.14915,0.48666 -0.10648,0.17639 -0.27686,0.36502 -0.56892,0.62058 -0.29207,0.25556 -0.70586,0.57807 -1.01309,0.76974 -0.30723,0.19167 -0.50805,0.25252 -0.72099,0.28905 -0.21293,0.0365 -0.43809,0.0487 -0.6206,0.0366 -0.18252,-0.0121 -0.32248,-0.0486 -0.49286,-0.10642 -0.17038,-0.0578 -0.37121,-0.1369 -0.53647,-0.22063 -0.16527,-0.0837 -0.3033,-0.17785 -0.4098,-0.25693 -0.10649,-0.0791 -0.18561,-0.14603 -0.26168,-0.2069 -0.0761,-0.0609 -0.14907,-0.11562 -0.25567,-0.10358 -0.1066,0.012 -0.24655,0.0911 -0.35914,0.16416 -0.11259,0.073 -0.1978,0.13998 -0.29821,0.21604 -0.10041,0.0761 -0.21601,0.16125 -0.34372,0.21906 -0.12772,0.0578 -0.26766,0.0882 -0.465401,0.10653 -0.19774,0.0183 -0.453319,0.0244 -0.696724,0.0305 -0.243405,0.006 -0.474642,0.0122 -0.702835,0.0153 -0.228193,0.003 -0.45334,0.003 -0.59936,-0.009 -0.14602,-0.0121 -0.212949,-0.0364 -0.462488,-0.31627 -0.249538,-0.27984 -0.681573,-0.81532 -0.900727,-1.10129 -0.219155,-0.28597 -0.225257,-0.32257 -0.246563,-0.52642 -0.02131,-0.20384 -0.05782,-0.57502 -0.07,-0.98883 -0.01219,-0.41381 -1.8e-5,-0.87019 0.0091,-1.10453 0.0091,-0.23434 0.01521,-0.24655 0.08214,-0.48991 0.06694,-0.24336 0.19472,-0.71799 0.346852,-1.09837 0.152132,-0.38038 0.3286,-0.66638 0.468559,-0.89457 0.13996,-0.2282 0.243403,-0.39858 0.514221,-0.69375 0.270818,-0.29517 0.708942,-0.71504 1.028439,-0.99498 0.319497,-0.27993 0.520304,-0.41989 0.699817,-0.54464 0.179514,-0.12474 0.337723,-0.23427 0.547716,-0.3286 0.209991,-0.0943 0.471651,-0.17343 0.766821,-0.23427 0.29516,-0.0608 0.62375,-0.10344 0.91586,-0.12167 0.29211,-0.0182 0.54768,-0.0121 0.82155,0.0336 0.27386,0.0457 0.56593,0.13088 0.71182,0.17343 0.14589,0.0425 0.14583,0.0424 0.18856,0.0851 z"
       id="path9873" />
    <path
       style="fill:none;stroke:#000000;stroke-width:0.264583px;stroke-linecap:butt;stroke-linejoin:miter;stroke-opacity:1"
       d="m 100.73754,124.2006 c 0.0853,-0.0365 0.25564,-0.10956 0.3987,-0.14298 0.14307,-0.0334 0.2587,-0.0273 0.39868,0.003 0.13997,0.0305 0.30428,0.0852 0.44425,0.13394 0.13997,0.0487 0.25558,0.0913 0.37116,0.17655 0.11558,0.0853 0.2312,0.21306 0.33159,0.33479 0.1004,0.12172 0.18557,0.23731 0.25856,0.35903 0.073,0.12171 0.13384,0.2495 0.17645,0.39295 0.0426,0.14345 0.0668,0.30075 0.0424,0.46191 -0.0244,0.16116 -0.0974,0.32547 -0.19173,0.5141 -0.0943,0.18863 -0.20994,0.40161 -0.36207,0.72718 -0.15213,0.32557 -0.34077,0.7637 -0.47768,1.08317 -0.13692,0.31946 -0.22211,0.52028 -0.40467,0.83364 -0.18255,0.31336 -0.46246,0.73931 -0.68151,1.0405 -0.21905,0.30119 -0.37726,0.47766 -0.53238,0.60541 -0.15513,0.12776 -0.30724,0.20686 -0.44109,0.26467 -0.133841,0.0578 -0.249453,0.0943 -0.368051,0.10654 -0.118599,0.0122 -0.240303,5e-5 -0.358954,-0.0212 -0.118652,-0.0213 -0.234259,-0.0517 -0.349878,-0.0973 -0.11562,-0.0456 -0.23123,-0.10645 -0.30437,-0.19461 -0.07314,-0.0882 -0.103568,-0.20378 -0.14919,-0.34374 -0.04562,-0.13996 -0.106471,-0.30425 -0.133916,-0.53248 -0.02745,-0.22822 -0.02136,-0.52031 -0.01527,-0.77284 0.0061,-0.25254 0.01217,-0.46552 0.03954,-0.73937 0.02737,-0.27384 0.07605,-0.60852 0.14298,-0.88544 0.06693,-0.27692 0.152113,-0.49598 0.243394,-0.69377 0.09128,-0.1978 0.188644,-0.37426 0.32933,-0.602 0.140687,-0.22773 0.333964,-0.52076 0.48609,-0.76112 0.152125,-0.24036 0.26774,-0.43508 0.432073,-0.62985 0.16433,-0.19477 0.37731,-0.3895 0.48379,-0.48685 0.10648,-0.0974 0.1065,-0.0974 0.19176,-0.13394 z"
       id="path9877" />
    <path
       style="fill:none;stroke:#000000;stroke-width:0.264583px;stroke-linecap:butt;stroke-linejoin:miter;stroke-opacity:1"
       d="m 95.291266,121.33162 c 0.0061,0.28918 0.01826,0.86727 0.02434,1.15918 0.0061,0.29191 0.0061,0.29831 0.158353,0.3104 0.152272,0.0121 0.456524,0.0304 0.639059,0.0792 0.182536,0.0488 0.243373,0.12792 0.310296,0.22529 0.06692,0.0974 0.139942,0.21298 0.194667,0.32252 0.05473,0.10954 0.09123,0.21298 0.08525,0.25851 -0.006,0.0455 -0.05467,0.0334 -0.322444,0.0272 -0.26777,-0.006 -0.754574,-0.006 -1.019278,-0.006 -0.264703,0 -0.307303,0 -0.45045,0.14911 -0.143147,0.1491 -0.386544,0.44726 -0.639098,0.91284 -0.252553,0.46558 -0.514207,1.09842 -0.784999,1.78301 -0.270791,0.68459 -0.550703,1.42088 -0.766728,1.97158 -0.216024,0.55071 -0.368149,0.91581 -0.468555,1.16226 -0.100405,0.24646 -0.149088,0.37425 -0.149026,0.54776 6.2e-5,0.1735 0.04874,0.39257 0.115795,0.52638 0.06705,0.1338 0.152249,0.18248 0.264819,0.21589 0.112569,0.0334 0.25253,0.0517 0.377187,0.0364 0.124658,-0.0153 0.234194,-0.0639 0.374104,-0.16129 0.13991,-0.0973 0.310291,-0.24338 0.43972,-0.38719 0.129429,-0.14381 0.223443,-0.29423 0.308647,-0.40683 0.0852,-0.1126 0.164333,-0.19173 0.261825,-0.22823 0.09749,-0.0365 0.213126,-0.0304 0.322654,-0.0274 0.109529,0.003 0.212973,0.003 0.292288,0.0224 0.07931,0.0194 0.145898,0.066 0.176162,0.133 0.03026,0.067 0.03026,0.1582 0.03314,0.25253 0.0029,0.0943 0.0093,0.20385 -0.258441,0.52319 -0.267759,0.31934 -0.809325,0.85482 -1.140867,1.13472 -0.331541,0.27989 -0.453235,0.30422 -0.654068,0.35594 -0.200833,0.0517 -0.480739,0.13082 -0.708875,0.15826 -0.228136,0.0274 -0.404598,0.003 -0.617575,-0.0334 -0.212977,-0.0365 -0.462467,-0.0852 -0.632846,-0.13684 -0.170379,-0.0517 -0.26166,-0.10643 -0.377287,-0.18552 -0.115627,-0.0791 -0.255581,-0.18253 -0.346975,-0.33463 -0.09139,-0.15209 -0.133989,-0.35289 -0.158321,-0.6876 -0.02433,-0.33471 -0.0305,-0.81543 0.02728,-1.2019 0.05778,-0.38647 0.179482,-0.68464 0.450275,-1.39965 0.270793,-0.71501 0.690662,-1.84683 0.943208,-2.47061 0.252547,-0.62378 0.337735,-0.73939 0.395542,-0.87623 0.05781,-0.13684 0.08823,-0.29505 0.115622,-0.48064 0.02739,-0.18558 0.05173,-0.39855 0.04579,-0.52026 -0.0059,-0.12171 -0.04243,-0.15214 -0.121536,-0.17659 -0.0791,-0.0244 -0.200793,-0.0427 -0.243556,-0.20084 -0.04276,-0.15814 -0.0063,-0.4563 0.02416,-0.62674 0.03041,-0.17045 0.05475,-0.21305 0.185746,-0.2344 0.130995,-0.0213 0.36831,-0.0213 0.502119,-0.0275 0.133809,-0.006 0.16425,-0.0183 0.33758,-0.31943 0.173331,-0.30114 0.489749,-0.89138 0.647989,-1.19556 0.158241,-0.30418 0.158241,-0.32238 0.432219,-0.31342 0.273978,0.009 0.821631,0.0455 1.095322,0.0637 0.273691,0.0182 0.273687,0.0182 0.279775,0.30735 z"
       id="path9881" />
    <path
       style="fill:none;stroke:#000000;stroke-width:0.264583px;stroke-linecap:butt;stroke-linejoin:miter;stroke-opacity:1"
       d="m 87.143248,116.223 c 0.243657,-0.0122 0.487062,-0.0243 0.67875,-0.0274 0.191689,-0.003 0.33166,0.003 0.450333,0.0152 0.118673,0.0122 0.216037,0.0305 0.322534,0.0762 0.106497,0.0457 0.222106,0.11873 0.306165,0.19035 0.08406,0.0716 0.141003,0.14754 0.214081,0.20528 0.07308,0.0577 0.164357,0.10034 0.243422,0.16432 0.07906,0.064 0.145981,0.14914 0.209852,0.24347 0.06387,0.0943 0.124723,0.19778 0.185538,0.33774 0.06082,0.13996 0.121664,0.31642 0.164258,0.44423 0.04259,0.1278 0.06693,0.20688 0.08195,0.30727 0.01503,0.10039 0.0214,0.23425 0.0031,0.3498 -0.01829,0.11555 -0.06088,0.21899 -0.109562,0.31024 -0.04868,0.0913 -0.10343,0.17033 -0.173386,0.25549 -0.06996,0.0852 -0.155169,0.17646 -0.231135,0.2312 -0.07596,0.0547 -0.142913,0.073 -0.252419,0.0913 -0.109506,0.0183 -0.261637,0.0366 -0.398516,0.0305 -0.13688,-0.006 -0.258573,-0.0365 -0.371142,-0.076 -0.11257,-0.0395 -0.216025,-0.0882 -0.295156,-0.13987 -0.07913,-0.0517 -0.133901,-0.10643 -0.19177,-0.20072 -0.05787,-0.0943 -0.118718,-0.22817 -0.16135,-0.34683 -0.04263,-0.11867 -0.06697,-0.22212 -0.103407,-0.30428 -0.03643,-0.0822 -0.08511,-0.14301 -0.148954,-0.19479 -0.06385,-0.0518 -0.142957,-0.0944 -0.194713,-0.11576 -0.05176,-0.0214 -0.0761,-0.0214 -0.143032,-0.0214 -0.06694,0 -0.176464,0 -0.243555,0.0274 -0.06709,0.0274 -0.09144,0.0822 -0.106633,0.17661 -0.01519,0.0944 -0.02128,0.22826 -0.02737,0.34996 -0.0061,0.1217 -0.01217,0.23123 -0.0091,0.36208 0.0031,0.13085 0.01523,0.28297 0.06402,0.40466 0.04879,0.12169 0.134,0.21299 0.191798,0.27995 0.0578,0.067 0.08823,0.10956 0.188672,0.18556 0.100444,0.076 0.270824,0.18553 0.416869,0.26766 0.146044,0.0821 0.267757,0.13689 0.37729,0.17947 0.109533,0.0426 0.206884,0.073 0.279878,0.0912 0.07299,0.0182 0.121711,0.0243 0.197798,0.0487 0.07609,0.0244 0.179534,0.067 0.37115,0.0547 0.191617,-0.0123 0.471522,-0.0792 0.666225,-0.13093 0.194703,-0.0517 0.304259,-0.0882 0.431977,-0.16733 0.127718,-0.0791 0.27376,-0.20079 0.392381,-0.35894 0.11862,-0.15815 0.209895,-0.35287 0.289002,-0.54149 0.07911,-0.18863 0.146042,-0.37118 0.173459,-0.6054 0.02742,-0.23422 0.01525,-0.52021 0.01504,-0.75756 -2.03e-4,-0.23735 0.01234,-0.43813 -0.0089,-0.59022 -0.02121,-0.1521 -0.07598,-0.26163 -0.155066,-0.39855 -0.07909,-0.13693 -0.182538,-0.30123 -0.422853,-0.52642 -0.240315,-0.22519 -0.617588,-0.51119 -0.961569,-0.6931 -0.343981,-0.18192 -0.666137,-0.26246 -1.101255,-0.299 -0.435118,-0.0365 -0.988857,-0.0304 -1.274858,-0.0274 -0.286,0.003 -0.30426,0.003 -0.517307,0.0821 -0.213047,0.0791 -0.620743,0.23729 -0.931155,0.41987 -0.310412,0.18258 -0.523392,0.38948 -0.731842,0.61288 -0.208449,0.2234 -0.41834,0.47033 -0.579616,0.71074 -0.161276,0.24041 -0.27689,0.47773 -0.389468,0.72114 -0.112578,0.24342 -0.22211,0.49291 -0.294481,0.69694 -0.07237,0.20403 -0.110169,0.37412 -0.134492,0.63582 -0.02432,0.26169 -0.03649,0.62071 -0.04562,0.9341 -0.0091,0.31339 -0.01521,0.58113 0.158263,1.33877 0.173476,0.75764 0.526409,2.00508 0.721102,2.82961 0.194693,0.82452 0.231203,1.22613 0.240315,1.93201 0.0091,0.70588 -0.0091,1.71599 -0.02743,2.26364 -0.01828,0.54765 -0.03653,0.6328 -0.10347,0.79097 -0.06694,0.15817 -0.182561,0.38941 -0.457704,0.69819 -0.275143,0.30877 -0.716664,0.70123 -1.005677,0.94158 -0.289013,0.24034 -0.428986,0.33163 -0.556736,0.4016 -0.127749,0.07 -0.243374,0.11865 -0.462384,0.1491 -0.21901,0.0304 -0.541517,0.0426 -0.824468,0.0426 -0.282951,1e-5 -0.526354,-0.0122 -0.745404,-0.0517 -0.21905,-0.0395 -0.413762,-0.10643 -0.584147,-0.16728 -0.170386,-0.0609 -0.316426,-0.11561 -0.556808,-0.27682 -0.240382,-0.1612 -0.575058,-0.42894 -0.803284,-0.64189 -0.228225,-0.21295 -0.349926,-0.37116 -0.468595,-0.53242 -0.118669,-0.16125 -0.234282,-0.32555 -0.32558,-0.46854 -0.0913,-0.143 -0.158233,-0.2647 -0.228232,-0.41074 -0.07,-0.14605 -0.143018,-0.31643 -0.194788,-0.49899 -0.05177,-0.18257 -0.0822,-0.37729 -0.09743,-0.63593 -0.01524,-0.25864 -0.01524,-0.58114 0.003,-0.79114 0.01823,-0.21 0.05474,-0.30736 0.109505,-0.45949 0.05477,-0.15212 0.127789,-0.35902 0.194728,-0.50207 0.06694,-0.14304 0.127806,-0.22217 0.222078,-0.32267 0.09427,-0.10051 0.234366,-0.23423 0.365191,-0.36505 0.130825,-0.13083 0.258611,-0.2647 0.36368,-0.37575 0.10507,-0.11105 0.193102,-0.20537 0.302671,-0.29059 0.109568,-0.0852 0.243459,-0.16433 0.401731,-0.22214 0.158272,-0.0578 0.340841,-0.0943 0.53255,-0.1095 0.19171,-0.0152 0.392524,-0.009 0.617648,-0.0243 0.225125,-0.0152 0.474624,-0.0517 0.672429,-0.0181 0.197806,0.0336 0.34385,0.13704 0.486825,0.2679 0.142974,0.13087 0.282929,0.28908 0.386355,0.41992 0.103425,0.13085 0.17036,0.23429 0.225093,0.33775 0.05473,0.10345 0.09732,0.20689 0.136847,0.34381 0.03952,0.13691 0.07603,0.30729 0.106447,0.47463 0.03042,0.16734 0.05475,0.33163 0.04558,0.48979 -0.0092,0.15815 -0.05177,0.31028 -0.121738,0.44408 -0.06997,0.1338 -0.167323,0.24941 -0.285943,0.35587 -0.118619,0.10646 -0.258586,0.20382 -0.349847,0.26466 -0.09126,0.0608 -0.13389,0.0852 -0.212892,0.1004 -0.079,0.0152 -0.194634,0.0213 -0.310504,0.0274"
       id="path9885" />
    <path
       style="fill:none;stroke:#000000;stroke-width:0.264583px;stroke-linecap:butt;stroke-linejoin:miter;stroke-opacity:1"
       d="m 80.918118,127.94311 c -0.285692,-0.19456 -0.571687,-0.38932 -0.722525,-0.5073 -0.150837,-0.11799 -0.171856,-0.17404 -0.238694,-0.22584 -0.06684,-0.0518 -0.182456,-0.10657 -0.295057,-0.13707 -0.1126,-0.0305 -0.222119,-0.0366 -0.322669,0.003 -0.10055,0.0395 -0.191813,0.12472 -0.212868,0.25952 -0.02106,0.13479 0.02722,0.31582 0.09117,0.46795 0.06395,0.15212 0.143063,0.27383 0.258726,0.39549 0.115663,0.12167 0.267788,0.24337 0.462521,0.33152 0.194733,0.0882 0.432058,0.14292 0.684576,0.17636 0.252518,0.0334 0.520263,0.0456 0.790984,-0.003 0.270722,-0.0487 0.544547,-0.15825 0.772678,-0.29819 0.228132,-0.13993 0.410684,-0.31031 0.562783,-0.52019 0.152099,-0.20989 0.273801,-0.45937 0.337719,-0.7027 0.06392,-0.24334 0.07,-0.48066 0.07609,-0.76362 0.0061,-0.28295 0.01217,-0.61154 -0.02912,-0.86466 -0.0413,-0.25312 -0.135005,-0.44054 -0.311438,-0.68701 -0.176432,-0.24647 -0.438086,-0.5568 -0.67233,-0.76376 -0.234244,-0.20696 -0.441132,-0.31041 -0.742362,-0.38957 -0.30123,-0.0792 -0.696756,-0.13393 -1.092046,-0.14312 -0.395289,-0.009 -0.791375,0.0274 -1.156517,0.0882 -0.365142,0.0608 -0.699809,0.14603 -1.019358,0.31034 -0.31955,0.16431 -0.623802,0.40771 -0.836823,0.62987 -0.213021,0.22216 -0.334724,0.42297 -0.50207,0.7455 -0.167346,0.32254 -0.380323,0.76675 -0.511147,1.12583 -0.130823,0.35908 -0.179502,0.6329 -0.194695,1.0101 -0.01519,0.3772 0.0031,0.85815 0.02748,1.132 0.02441,0.27385 0.05484,0.34079 0.219147,0.66331 0.16431,0.32251 0.462477,0.90059 0.617598,1.217 0.155122,0.31641 0.167297,0.37121 0.311921,0.53085 0.144624,0.15965 0.415411,0.4184 0.789677,0.67697 0.374266,0.25858 0.848897,0.51415 1.533464,0.65403 0.684566,0.13987 1.579063,0.1642 2.263614,0.13071 0.68455,-0.0335 1.159187,-0.12477 1.579031,-0.24344 0.419844,-0.11867 0.784945,-0.26471 1.212382,-0.55544 0.427437,-0.29073 0.923348,-0.73154 1.264089,-1.09357 0.340742,-0.36203 0.529374,-0.64802 0.718011,-1.01615 0.188637,-0.36812 0.377273,-0.81841 0.483762,-1.07095 0.10649,-0.25253 0.130831,-0.3073 0.158235,-0.66018 0.0274,-0.35288 0.05783,-1.00398 0.03657,-1.51511 -0.02126,-0.51113 -0.09428,-0.88232 -0.167294,-1.20483 -0.07301,-0.32251 -0.146033,-0.59634 -0.298161,-1.13793 -0.152127,-0.54158 -0.383357,-1.35089 -0.581129,-2.05982 -0.197771,-0.70892 -0.362067,-1.31742 -0.477709,-1.87727 -0.115642,-0.55985 -0.182577,-1.07099 -0.209987,-1.427 -0.02741,-0.35601 -0.01524,-0.55682 0.02429,-0.74247 0.03954,-0.18565 0.106468,-0.35603 0.206889,-0.52647 0.100422,-0.17044 0.234292,-0.34082 0.378589,-0.49148 0.144296,-0.15065 0.306053,-0.28752 0.467369,-0.39099 0.161315,-0.10347 0.325597,-0.17648 0.489773,-0.24945"
       id="path9889" />
    <path
       style="opacity:1;fill:#f26f33;fill-opacity:1;stroke-width:0.780612"
       d="m 128.75019,111.04202 c -6.33111,-7.40605 -11.79591,-13.787453 -12.14398,-14.180881 -0.38116,-0.430828 -3.28031,-0.303487 -7.28942,0.320175 -5.18322,0.806318 -7.32978,0.833811 -9.698172,0.124227 C 95.701383,96.131907 91.452613,91.428659 88.382064,84.867047 82.161839,71.574732 88.103949,58.44826 103.94738,50.482337 l 6.26685,-3.150911 0.48466,-7.272866 c 0.8098,-12.151867 3.85384,-17.974671 13.60139,-26.01742 9.8208,-8.1031972 18.74782,-10.8228542 31.93851,-9.7302095 8.90105,0.7373145 13.16239,2.8248213 21.03809,10.3059655 l 5.88334,5.5886 4.43514,-1.045634 c 2.43932,-0.575098 7.8893,-1.203318 12.11106,-1.396044 7.37506,-0.336676 7.87211,-0.25383 12.68106,2.113612 8.08955,3.982468 11.16706,9.343403 11.21917,19.543463 0.0422,8.264091 -0.89735,10.910681 -5.35302,15.078439 -2.75412,2.576155 -5.07863,3.928298 -8.38188,4.87565 -5.49383,1.5756 -6.52239,2.314364 -6.52239,4.684694 0,0.995432 -0.38547,2.048111 -0.8566,2.339285 -0.47113,0.291175 -6.17935,1.323433 -12.68494,2.293907 -12.88616,1.922298 -18.01857,3.545477 -25.32877,8.01048 -6.41389,3.917546 -8.81617,6.123882 -8.2563,7.582877 0.6374,1.661025 2.54163,1.489922 7.4177,-0.66651 10.41982,-4.608134 16.54897,-5.948847 27.19557,-5.948847 10.10429,0 12.51334,0.324716 12.51334,1.686675 0,0.452526 -3.28636,0.531079 -8.47708,0.202626 -5.76538,-0.364816 -9.75608,-0.229577 -12.47538,0.422772 -3.97968,0.954709 -10.27201,4.801377 -10.27201,6.279551 0,0.47469 4.61969,0.822616 11.90433,0.896579 10.09611,0.102503 10.95575,0.197214 5.65943,0.623506 -6.05355,0.48725 -9.32694,1.690961 -10.10381,3.715447 -0.5412,1.41037 1.62582,2.283781 6.98886,2.816853 8.09091,0.804209 15.21444,3.963892 15.21444,6.748443 0,1.46629 -0.079,1.4644 -3.58287,-0.0855 -5.57341,-2.465392 -17.34355,-2.165122 -26.47069,0.67529 -9.89935,3.08074 -21.46896,11.14668 -26.53099,18.49652 -1.6508,2.39688 -3.43814,4.35797 -3.97187,4.35797 -0.53372,0 -6.15041,-6.0595 -12.48153,-13.46555 z"
       id="path11339"
       transform="matrix(0.26458333,0,0,0.26458333,52.69521,64.687859)" />
    <path
       style="opacity:1;fill:#f26f33;fill-opacity:1;stroke-width:0.780612"
       d="m 102.26014,254.96781 c -5.687955,-1.49983 -8.500854,-3.81449 -11.227921,-9.23917 -2.361574,-4.69763 -2.189228,-9.95134 0.494508,-15.07437 2.776307,-5.29973 5.844315,-7.00901 12.580593,-7.00901 4.71515,0 5.14077,0.15565 7.62314,2.78773 2.15536,2.28535 2.62916,3.39994 2.62916,6.185 0,4.87765 -2.89577,8.20073 -7.14622,8.20073 -3.61115,0 -6.12418,-1.13239 -6.12418,-2.7596 0,-1.5221 0.77504,-1.4184 3.12245,0.41777 2.49242,1.9496 3.21859,1.93401 5.83659,-0.12531 1.9341,-1.52137 2.10829,-2.059 1.77864,-5.48976 -0.54578,-5.67996 -2.74033,-7.65533 -8.50475,-7.65533 -3.982384,0 -4.862713,0.30052 -7.39602,2.52479 -6.530159,5.73356 -6.55662,13.99897 -0.06648,20.76501 3.586046,3.73848 6.10335,4.81222 11.28192,4.81222 3.84949,0 5.07054,-0.36909 7.75701,-2.34474 5.26262,-3.87018 5.70796,-5.04387 5.69029,-14.99641 -0.0121,-6.78993 -0.45583,-10.50931 -1.93589,-16.22515 -2.87978,-11.12152 -2.4165,-15.76042 2.20115,-22.04046 4.83736,-6.57886 16.55749,-7.00057 21.41236,-0.77045 1.22326,1.56977 1.27087,7.52127 0.0783,9.78698 -1.24067,2.35708 -2.17686,2.85021 -5.4373,2.86402 -3.52043,0.0149 -6.93562,-2.5056 -6.93562,-5.11868 0,-2.45582 1.0701,-2.42275 2.20503,0.0682 1.24119,2.7241 4.25835,4.00798 6.75046,2.8725 3.71094,-1.69082 3.53614,-7.29561 -0.3487,-11.18044 -1.82956,-1.82956 -2.91317,-2.24181 -5.89267,-2.24181 -3.11114,0 -4.04322,0.39236 -6.30494,2.65408 -2.35963,2.35963 -2.65334,3.1174 -2.64739,6.83035 0.004,2.36859 1.35244,9.24455 3.11576,15.88545 3.71188,13.97942 3.91276,18.33168 1.11871,24.23782 -2.06286,4.36054 -6.77411,8.93973 -10.75454,10.45309 -2.94551,1.11988 -12.0731,1.6845 -14.95344,0.925 z"
       id="path11378"
       transform="matrix(0.26458333,0,0,0.26458333,52.69521,64.687859)" />
    <path
       style="opacity:1;fill:#f26f33;fill-opacity:1;stroke-width:0.780612"
       d="m 144.19656,253.65455 c -2.54476,-1.78242 -2.24106,-5.92606 1.0953,-14.94378 1.55661,-4.20733 3.34202,-9.0548 3.96756,-10.77214 0.84111,-2.30912 0.91723,-3.47552 0.29224,-4.47793 -1.23541,-1.98145 -1.0376,-2.93788 0.60763,-2.93788 0.92529,0 2.12934,-1.27539 3.31625,-3.51276 1.62387,-3.06102 2.18994,-3.51275 4.40184,-3.51275 2.48799,0 2.53833,0.0697 2.53833,3.51275 0,3.20389 0.16755,3.51276 1.90546,3.51276 1.04801,0 2.12256,0.35127 2.38791,0.78061 0.28661,0.46374 -0.62916,0.78061 -2.25604,0.78061 -2.18079,0 -3.12406,0.51666 -4.63181,2.53699 -1.9178,2.56979 -9.8953,21.58397 -9.8953,23.58522 0,1.40296 2.13826,3.54104 3.54134,3.54104 0.5984,0 2.32381,-1.08506 3.83425,-2.41124 3.55881,-3.12467 5.19437,-2.6346 2.37795,0.71253 -3.90931,4.64595 -9.763,6.2115 -13.48291,3.60597 z"
       id="path11417"
       transform="matrix(0.26458333,0,0,0.26458333,52.69521,64.687859)" />
    <path
       style="opacity:1;fill:#f26f33;fill-opacity:1;stroke-width:0.780612"
       d="m 187.34682,252.96196 -3.12245,-1.89976 -2.58161,1.51346 c -1.68226,0.98623 -4.03355,1.51346 -6.74948,1.51346 -3.77628,0 -4.39056,-0.25361 -6.53781,-2.6992 -4.25505,-4.84623 -4.02338,-13.89718 0.5291,-20.6711 2.45406,-3.65154 7.69157,-8.28827 10.61971,-9.40154 3.1146,-1.18417 9.55099,-0.96025 12.23074,0.4255 1.82994,0.9463 2.60731,1.014 3.46543,0.30182 0.68708,-0.57022 2.15962,-0.72053 3.88604,-0.39665 3.36183,0.63069 3.52404,-0.10173 -3.23478,14.60615 -5.15945,11.2275 -5.64424,12.96762 -4.0554,14.55645 1.60076,1.60077 3.62194,1.04559 6.86713,-1.88624 2.17298,-1.96315 3.1247,-2.44793 3.1247,-1.59163 0,2.2975 -6.78319,7.5322 -9.75765,7.53014 -0.85867,-6e-4 -2.96633,-0.85598 -4.68367,-1.90086 z m -5.0562,-4.26163 c 2.90005,-3.04858 9.35214,-15.39121 9.34664,-17.87981 -0.006,-2.78423 -2.96581,-6.29506 -5.74657,-6.81674 -4.23519,-0.79452 -5.77322,0.16039 -9.651,5.99204 -3.45639,5.19792 -3.63397,5.73793 -3.96576,12.05943 -0.29241,5.57112 -0.12734,6.86095 1.04371,8.15493 2.30524,2.54727 5.64872,1.98468 8.97298,-1.50985 z"
       id="path11456"
       transform="matrix(0.26458333,0,0,0.26458333,52.69521,64.687859)" />
    <path
       style="opacity:1;fill:#f26f33;fill-opacity:1;stroke-width:0.780612"
       d="m 210.82093,252.86245 c -1.95023,-1.95023 -1.46845,-5.18224 2.28608,-15.33628 3.43246,-9.28302 4.30333,-14.08078 2.73214,-15.05182 -1.3164,-0.81358 -0.86768,-1.95153 0.76953,-1.95153 0.94371,0 2.35853,-1.22155 3.61649,-3.12245 1.71845,-2.59675 2.50092,-3.12245 4.64762,-3.12245 2.41934,0 2.59649,0.18366 2.82356,2.9273 0.21034,2.54142 0.52525,2.95985 2.38896,3.17429 3.02791,0.3484 2.67831,1.70453 -0.43941,1.70453 -1.81763,0 -3.17834,0.6379 -4.57914,2.14668 -2.81871,3.03599 -10.19089,21.91551 -9.86959,25.27519 0.36084,3.77319 2.79363,3.89498 6.73188,0.33701 1.69199,-1.52862 3.29723,-2.7793 3.5672,-2.7793 1.14281,0 0.31942,1.63183 -2.13831,4.23778 -2.40223,2.54711 -3.00381,2.78772 -6.96975,2.78772 -2.90517,0 -4.74624,-0.40565 -5.56726,-1.22667 z"
       id="path11495"
       transform="matrix(0.26458333,0,0,0.26458333,52.69521,64.687859)" />
    <path
       style="opacity:1;fill:#f26f33;fill-opacity:1;stroke-width:0.780612"
       d="m 234.37868,253.24598 c -1.00555,-0.58567 -1.36607,-1.80048 -1.36607,-4.60308 0,-3.08069 0.91496,-5.67479 4.7937,-13.591 4.6546,-9.49968 4.75653,-9.84031 3.51275,-11.73856 -0.70452,-1.07524 -1.28095,-2.14298 -1.28095,-2.37275 0,-0.22978 2.28329,-0.41777 5.07398,-0.41777 3.8423,0 5.07397,0.26678 5.07397,1.09904 0,0.60447 -2.63456,6.62006 -5.85458,13.36798 -3.22003,6.74792 -5.85459,12.70894 -5.85459,13.2467 0,1.658 2.21517,2.93118 4.22306,2.42723 1.04583,-0.26249 2.9824,-1.38677 4.3035,-2.4984 2.51731,-2.11818 2.9335,-1.99223 1.60703,0.4863 -2.0643,3.85718 -10.70712,6.64726 -14.2318,4.59431 z"
       id="path11534"
       transform="matrix(0.26458333,0,0,0.26458333,52.69521,64.687859)" />
    <path
       style="opacity:1;fill:#f26f33;fill-opacity:1;stroke-width:0.780612"
       d="m 259.23474,251.72998 c -3.14797,-2.9017 -3.4469,-3.51959 -3.94276,-8.14982 -0.44751,-4.17882 -0.26211,-5.63301 1.11741,-8.76458 2.35414,-5.34399 8.79869,-11.61792 13.89093,-13.52318 5.50252,-2.05875 7.3843,-1.95718 10.37585,0.56004 4.85264,4.08322 5.82263,9.99999 3.01737,18.40545 -1.94195,5.81872 -5.75632,10.13646 -11.26004,12.746 -5.9386,2.81572 -9.09225,2.51134 -13.19876,-1.27391 z m 11.05921,-0.75909 c 3.11359,-1.89838 4.96342,-4.82627 8.00105,-12.66397 2.60666,-6.7257 3.03997,-12.28387 1.10825,-14.21559 -0.69054,-0.69054 -2.54084,-1.22668 -4.23348,-1.22668 -4.13264,0 -6.90472,2.54048 -10.49905,9.62187 -6.77083,13.33959 -3.5114,24.05382 5.62323,18.48437 z"
       id="path11573"
       transform="matrix(0.26458333,0,0,0.26458333,52.69521,64.687859)" />
    <path
       style="opacity:1;fill:#f26f33;fill-opacity:1;stroke-width:0.780612"
       d="m 288.43604,253.18612 c 0,-0.49664 2.31549,-6.02923 5.14553,-12.29463 4.7095,-10.42629 5.11206,-11.73038 4.75048,-15.38903 l -0.39506,-3.99739 3.93454,-0.46599 c 2.18681,-0.25899 4.60235,-0.10859 5.43793,0.3386 1.10357,0.59062 2.40649,0.45969 4.89926,-0.49231 2.18786,-0.83555 4.04785,-1.07825 5.22867,-0.68225 1.00805,0.33805 2.31782,0.69956 2.9106,0.80337 3.95528,0.69265 3.63021,6.25805 -0.99566,17.04645 -2.01708,4.7042 -3.56327,9.44341 -3.43599,10.53158 0.32262,2.75822 2.50735,2.91542 5.78404,0.41617 4.01168,-3.05986 4.36235,-1.55525 0.48127,2.06499 -3.17326,2.95998 -3.52728,3.09008 -7.80145,2.86691 l -4.47734,-0.23377 -0.23491,-3.63425 c -0.18354,-2.83938 0.54206,-5.59874 3.3176,-12.61633 1.95388,-4.94016 3.55251,-9.89986 3.55251,-11.02155 0,-4.13046 -5.80579,-4.09006 -9.47765,0.0659 -1.53947,1.74245 -5.51446,9.6503 -10.046,19.98552 -3.26802,7.45348 -3.3913,7.61096 -5.95772,7.61096 -1.46348,0 -2.62065,-0.39872 -2.62065,-0.903 z"
       id="path11612"
       transform="matrix(0.26458333,0,0,0.26458333,52.69521,64.687859)" />
    <path
       style="opacity:1;fill:#666666;fill-opacity:1;stroke-width:0.780612"
       d="m 188.29155,295.46154 c -0.24177,-0.92453 -1.06476,-1.56122 -2.01807,-1.56122 -1.13759,0 -1.47276,-0.35713 -1.14261,-1.21748 0.30932,-0.80609 -0.0764,-1.35963 -1.1414,-1.63815 -0.97076,-0.25385 -1.44314,-0.85184 -1.19131,-1.50807 0.2295,-0.59808 -0.1248,-1.29544 -0.78734,-1.54968 -0.95413,-0.36613 -0.68692,-0.9147 1.28508,-2.63814 5.91036,-5.16539 8.29942,-6.2801 13.45959,-6.2801 4.76312,0 5.0706,-0.12839 11.20994,-4.68043 3.47187,-2.57423 6.31249,-4.97193 6.31249,-5.32821 0,-0.89193 -2.66968,-3.20497 -8.12834,-7.04246 -3.61515,-2.54148 -4.23099,-3.24481 -2.84119,-3.24481 0.97593,0 4.18921,1.75638 7.14063,3.90306 3.12005,2.26934 6.20253,3.90306 7.3642,3.90306 1.09889,0 4.30659,-1.58074 7.12822,-3.51275 7.22855,-4.9495 8.55336,-4.37595 1.90608,0.8252 -3.04925,2.38587 -5.54409,4.81208 -5.54409,5.39159 0,0.5795 1.66856,2.43973 3.7079,4.13383 3.08394,2.56186 4.46363,3.15576 8.19875,3.52928 5.08976,0.50898 11.4527,3.17479 15.25691,6.39201 2.37564,2.00909 2.55635,2.48553 2.34183,6.17451 -0.21426,3.6847 -0.44909,4.11343 -3.00154,5.48006 -6.08706,3.25914 -12.91809,-1.15605 -17.88263,-11.55831 -2.04548,-4.28592 -3.25792,-5.69645 -7.49589,-8.72061 -2.78065,-1.98423 -5.55256,-3.41703 -6.1598,-3.18401 -1.47294,0.56522 -13.15474,9.16533 -13.88341,10.22092 -0.31543,0.45695 -0.5802,1.70901 -0.58838,2.78235 -0.025,3.2847 -2.6896,6.57981 -7.76611,9.60387 -2.66453,1.58725 -4.9541,2.88592 -5.08792,2.88592 -0.13382,0 -0.42704,-0.70255 -0.65159,-1.56123 z"
       id="path11651"
       transform="matrix(0.26458333,0,0,0.26458333,52.69521,64.687859)" />
    <path
       style="opacity:1;fill:#666666;fill-opacity:1;stroke-width:0.780612"
       d="m 4.8103267,190.51784 c -0.7787448,-2.02938 -0.5976337,-58.42933 0.1916299,-59.67557 0.5524632,-0.87234 3.0786146,-1.01212 13.0811634,-0.72385 11.219149,0.32334 12.811432,0.54724 16.765654,2.35755 11.894242,5.44536 15.217229,13.87394 9.195707,23.32441 -1.254964,1.9696 -2.281753,3.87591 -2.281753,4.23624 0,0.36033 1.304737,2.54956 2.899415,4.86496 2.4415,3.54495 2.896715,4.84847 2.882319,8.25356 -0.05033,11.90438 -8.95166,17.15246 -30.829806,18.17675 -10.3568359,0.48489 -11.434151,0.41122 -11.9043293,-0.81405 z M 30.416696,176.72769 c 5.243783,-4.6041 2.928695,-10.06708 -4.266203,-10.06708 h -3.903058 v 6.24489 6.24489 h 2.704979 c 1.912476,0 3.513396,-0.7098 5.464282,-2.4227 z m -1.319451,-23.34076 c 6.825244,-4.16135 3.427969,-12.39331 -4.322211,-10.47318 -3.343391,0.82833 -3.697601,1.77416 -2.93881,7.84732 0.486559,3.89429 0.671257,4.19015 2.614063,4.18744 1.149781,-0.002 3.240913,-0.70431 4.646958,-1.56158 z"
       id="path14184"
       transform="matrix(0.26458333,0,0,0.26458333,52.69521,64.687859)" />
    <path
       style="opacity:1;fill:#666666;fill-opacity:1;stroke-width:0.780612"
       d="M 53.949754,168.41698 C 53.686285,157.36157 53.342569,144.38376 53.18594,139.57741 l -0.28478,-8.73882 4.25058,-0.53108 c 2.33782,-0.29209 8.007863,-0.37627 12.600095,-0.18706 7.397012,0.30477 8.83014,0.60533 12.562598,2.6347 11.904393,6.4725 14.591491,23.56639 5.290692,33.65657 -3.751741,4.07016 -4.110167,2.90347 4.3007,13.99894 l 5.257923,6.93616 -2.916087,0.54047 c -1.603848,0.29726 -5.24734,0.56072 -8.096649,0.58546 l -5.180562,0.045 -4.470499,-5.46429 c -2.458775,-3.00535 -4.957558,-5.46428 -5.55285,-5.46428 -0.809857,0 -1.08235,1.2564 -1.08235,4.99046 0,5.95253 0.02174,5.93811 -8.952743,5.93811 h -6.483219 z m 21.471116,-9.47065 c 2.014543,-2.01455 3.03061,-3.73289 3.03061,-5.1253 0,-4.6468 -3.512153,-7.62288 -6.604675,-5.59658 -1.501696,0.98395 -1.911194,2.13489 -2.364079,6.64453 -0.818331,8.14858 0.773737,9.24175 5.938144,4.07735 z"
       id="path14223"
       transform="matrix(0.26458333,0,0,0.26458333,52.69521,64.687859)" />
    <path
       style="opacity:1;fill:#666666;fill-opacity:1;stroke-width:0.780612"
       d="m 102.29329,183.63891 c -0.16949,-0.53667 -0.46177,-13.13421 -0.64951,-27.99454 l -0.34135,-27.01878 6.33344,-0.49311 c 3.48339,-0.2712 11.69039,-0.49521 18.23777,-0.49778 11.82421,-0.005 11.90438,0.007 11.91112,1.7517 0.004,0.966 0.2283,3.60057 0.49904,5.85458 l 0.49225,4.09822 -10.45184,0.0119 c -5.74851,0.007 -10.90914,0.30201 -11.46807,0.65654 -0.70572,0.44762 -0.94424,2.17326 -0.78061,5.64748 l 0.23562,5.0029 8.81556,0.22103 8.81556,0.22103 -0.22883,5.63356 -0.22883,5.63355 -7.80612,0.39031 c -4.29336,0.21467 -8.24521,0.67449 -8.78188,1.02183 -0.53667,0.34734 -0.97577,1.98717 -0.97577,3.64406 0,5.58435 -0.21275,5.48206 11.40239,5.48206 h 10.45474 v 5.3514 5.3514 l -5.26913,0.49764 c -9.75798,0.92158 -29.87521,0.61064 -30.21555,-0.46703 z"
       id="path14262"
       transform="matrix(0.26458333,0,0,0.26458333,52.69521,64.687859)" />
    <path
       style="opacity:1;fill:#666666;fill-opacity:1;stroke-width:0.780612"
       d="m 177.4836,186.43567 c -1.29806,-0.34548 -2.23626,-3.40279 -2.23626,-7.28727 0,-3.32297 -1.49149,-3.99582 -8.29057,-3.74008 l -6.09673,0.22932 -0.65676,3.12245 c -0.36122,1.71734 -0.81916,3.91282 -1.01765,4.87882 -0.34366,1.67255 -0.71411,1.75638 -7.76182,1.75638 -4.07052,0 -7.40758,-0.26346 -7.41568,-0.58546 -0.008,-0.322 2.34406,-13.14355 5.22703,-28.49233 l 5.24177,-27.90687 h 11.93155 c 11.72857,0 11.93871,0.0299 12.35171,1.75638 4.69717,19.63591 12.87495,55.08116 12.87711,55.81374 0.002,0.70929 -1.75587,0.95103 -6.43716,0.88521 -3.54203,-0.0498 -7.01447,-0.24343 -7.71654,-0.43029 z m -7.3163,-30.11817 c -0.30737,-3.54202 -0.60739,-6.49685 -0.66671,-6.56627 -0.0593,-0.0694 -1.00718,0.0466 -2.10638,0.25784 -1.79756,0.34543 -2.09194,0.92871 -2.92729,5.80014 -0.51082,2.97885 -0.92876,5.76085 -0.92876,6.18221 0,0.42137 1.6173,0.76613 3.594,0.76613 h 3.594 z"
       id="path14301"
       transform="matrix(0.26458333,0,0,0.26458333,52.69521,64.687859)" />
    <path
       style="opacity:1;fill:#666666;fill-opacity:1;stroke-width:0.780612"
       d="m 225.59679,184.07262 c -1.0148,-0.20984 -2.90225,-2.76945 -5.39277,-7.31323 -6.00069,-10.94785 -7.02737,-11.01918 -7.94046,-0.55164 l -0.52907,6.06509 h -6.9492 c -4.86251,0 -7.04856,-0.293 -7.28006,-0.97576 -0.46887,-1.38283 -2.54897,-50.85225 -2.15813,-51.32522 0.17739,-0.21467 3.98248,-0.5101 8.45576,-0.65652 l 8.13323,-0.26621 0.0778,6.90141 c 0.15668,13.89649 1.84095,14.45207 8.14667,2.68729 3.01742,-5.62971 5.13948,-8.7164 6.18561,-8.99745 1.87208,-0.50294 15.25315,-0.6038 15.25315,-0.11496 0,0.1838 -3.39162,6.19355 -7.53693,13.355 l -7.53694,13.02082 2.06299,4.01362 c 1.13465,2.20748 4.35063,8.04428 7.14663,12.97065 2.796,4.92638 5.08364,9.40514 5.08364,9.9528 0,0.71778 -1.61657,0.99576 -5.79074,0.99576 -3.18491,0 -6.25857,0.12631 -6.83035,0.28069 -0.57179,0.15439 -1.74216,0.13543 -2.60084,-0.0421 z"
       id="path14340"
       transform="matrix(0.26458333,0,0,0.26458333,52.69521,64.687859)" />
    <path
       style="opacity:1;fill:#666666;fill-opacity:1;stroke-width:0.780612"
       d="m 248.32727,179.73585 c -0.77411,-8.95318 -1.24038,-49.35899 -0.58166,-50.40479 0.4925,-0.7819 4.92227,-1.14121 18.32811,-1.48666 l 17.67865,-0.45555 v 5.97517 5.97518 l -8.78188,0.0778 c -12.62668,0.11188 -12.68494,0.13857 -12.68494,5.81197 v 4.64847 l 8.78188,0.22072 8.78188,0.22072 -0.0107,4.46295 c -0.0193,8.09868 0.20656,7.89092 -8.85536,8.14448 l -7.91713,0.22153 -0.39031,10.14796 -0.3903,10.14795 -3.51276,0.5276 c -1.93201,0.29018 -4.97771,0.55363 -6.76822,0.58546 l -3.25547,0.0579 z"
       id="path14379"
       transform="matrix(0.26458333,0,0,0.26458333,52.69521,64.687859)" />
    <path
       style="opacity:1;fill:#666666;fill-opacity:1;stroke-width:0.780612"
       d="m 280.61935,183.24861 c -0.0318,-1.75983 11.19872,-55.33441 11.71478,-55.88486 0.63494,-0.67724 21.94107,-2.2568 22.52774,-1.67012 0.18087,0.18087 3.07506,12.54609 6.43152,27.47827 3.35647,14.93218 6.30088,27.93978 6.54313,28.90579 0.43454,1.73276 0.33661,1.75638 -7.28295,1.75638 h -7.72341 l -0.4989,-2.49447 c -0.27439,-1.37195 -0.85875,-3.83088 -1.29858,-5.46428 l -0.79969,-2.96982 h -6.13018 c -6.86793,0 -6.39562,-0.45453 -7.50296,7.22066 l -0.53496,3.70791 h -7.71748 c -4.24462,0 -7.72225,-0.26346 -7.72806,-0.58546 z m 27.33198,-23.71476 c 0,-2.43532 -3.48935,-13.17695 -4.20315,-12.93901 -0.45299,0.15099 -1.26903,2.53209 -1.81344,5.29133 -0.5444,2.75923 -1.17645,5.80716 -1.40455,6.77317 -0.388,1.64322 -0.1623,1.75637 3.50321,1.75637 2.39144,0 3.91793,-0.34359 3.91793,-0.88186 z"
       id="path14418"
       transform="matrix(0.26458333,0,0,0.26458333,52.69521,64.687859)" />
    <path
       style="opacity:1;fill:#666666;fill-opacity:1;stroke-width:0.780612"
       d="m 350.18893,184.47727 c -4.7617,-0.83277 -12.47507,-4.63953 -15.47749,-7.63857 l -2.51284,-2.51 4.46437,-5.28006 4.46436,-5.28007 2.70357,1.08548 c 1.48697,0.59702 3.3276,1.65023 4.09031,2.34046 1.8114,1.6393 8.8051,2.33402 10.37555,1.03067 3.24702,-2.6948 -0.2769,-6.52282 -7.43694,-8.07872 -7.0691,-1.53614 -8.4461,-2.19935 -12.92227,-6.22381 -4.14859,-3.72994 -5.78725,-7.26267 -5.78725,-12.47652 0,-5.90013 2.39523,-9.2439 9.75764,-13.62174 4.06728,-2.41849 5.50642,-2.83158 10.93538,-3.13892 5.74942,-0.32547 6.65881,-0.16083 11.31887,2.04926 2.78694,1.32174 6.39237,3.5011 8.01207,4.84302 l 2.9449,2.43986 -3.64899,5.19778 c -2.00695,2.85878 -3.88906,5.47367 -4.18248,5.81086 -0.29341,0.3372 -2.78677,-0.45289 -5.5408,-1.75576 -6.18503,-2.92598 -11.89067,-3.26236 -13.21953,-0.77936 -1.35977,2.54076 -0.24859,4.32931 3.34818,5.38915 5.99055,1.7652 15.75433,6.37117 18.00896,8.49556 3.51899,3.31571 4.41883,5.77721 4.41883,12.08763 0,5.65973 -0.0685,5.86127 -3.20217,9.42131 -1.76119,2.00082 -3.95666,4.05087 -4.87882,4.55567 -2.69727,1.47652 -12.27798,2.69361 -16.03341,2.03682 z"
       id="path14457"
       transform="matrix(0.26458333,0,0,0.26458333,52.69521,64.687859)" />
    <path
       style="opacity:1;fill:#666666;fill-opacity:1;stroke-width:0.780612"
       d="m 394.59924,161.69536 v -21.57555 h -7.02551 -7.02551 v -5.74339 -5.74338 l 4.79818,-0.50151 c 2.639,-0.27583 11.77216,-0.50151 20.29591,-0.50151 h 15.49773 v 5.85459 5.85459 h -6.36469 -6.36468 l 0.55262,21.46682 0.55262,21.46682 -3.36013,0.007 c -1.84806,0.004 -5.20432,0.2283 -7.45833,0.49903 l -4.09821,0.49226 z"
       id="path14496"
       transform="matrix(0.26458333,0,0,0.26458333,52.69521,64.687859)" />
  </g>
</svg>
